<svg width="152" height="48" viewBox="0 0 152 48" fill="none" xmlns="http://www.w3.org/2000/svg">
<rect width="152" height="48" rx="4.10256" fill="url(#paint0_linear)"/>
<path fill-rule="evenodd" clip-rule="evenodd" d="M60.856 36.1188H63.078L58.214 23.1152H55.964L51.1 36.1188H53.2472L54.4889 32.6674H59.6237L60.856 36.1188ZM56.9816 25.4762H57.1403L59.0915 30.9732H55.0211L56.9816 25.4762ZM68.9695 26.1431C67.5878 26.1431 66.3928 26.8099 65.7766 27.9273H65.6273V26.3053H63.6947V39.2998H65.7019V34.6319H65.8607C66.3928 35.6682 67.5411 36.281 68.9882 36.281C71.5556 36.281 73.1894 34.3255 73.1894 31.2075C73.1894 28.0895 71.5556 26.1431 68.9695 26.1431ZM68.4 34.5417C66.7196 34.5417 65.6646 33.2621 65.6646 31.2165C65.6646 29.1619 66.7196 27.8823 68.4094 27.8823C70.1085 27.8823 71.1261 29.1349 71.1261 31.2075C71.1261 33.2892 70.1085 34.5417 68.4 34.5417ZM79.3796 26.1431C77.9979 26.1431 76.8029 26.8099 76.1868 27.9273H76.0374V26.3053H74.1048V39.2998H76.1121V34.6319H76.2708C76.8029 35.6682 77.9513 36.281 79.3983 36.281C81.9657 36.281 83.5995 34.3255 83.5995 31.2075C83.5995 28.0895 81.9657 26.1431 79.3796 26.1431ZM78.8102 34.5417C77.1297 34.5417 76.0747 33.2621 76.0747 31.2165C76.0747 29.1619 77.1297 27.8823 78.8195 27.8823C80.5186 27.8823 81.5362 29.1349 81.5362 31.2075C81.5362 33.2892 80.5186 34.5417 78.8102 34.5417ZM87.8485 32.6223C87.9979 34.9473 90.0051 36.4342 92.9926 36.4342C96.1855 36.4342 98.1833 34.8752 98.1833 32.388C98.1833 30.4325 97.0444 29.3511 94.2809 28.7294L92.7965 28.3779C91.0414 27.9814 90.3318 27.4497 90.3318 26.5215C90.3318 25.3501 91.4335 24.5841 93.0859 24.5841C94.6544 24.5841 95.7373 25.332 95.9334 26.5306H97.9686C97.8473 24.3408 95.8494 22.7998 93.1139 22.7998C90.1731 22.7998 88.2126 24.3408 88.2126 26.6567C88.2126 28.5671 89.3236 29.7026 91.7602 30.2523L93.4967 30.6578C95.2799 31.0633 96.0641 31.6581 96.0641 32.6493C96.0641 33.8028 94.8318 34.6409 93.1513 34.6409C91.3494 34.6409 90.0984 33.8569 89.9211 32.6223H87.8485ZM99.9111 23.9262V26.3503H98.2399V27.9814H99.9111V33.5235C99.9111 35.4159 100.798 36.1728 103.029 36.1728C103.421 36.1728 103.785 36.1278 104.103 36.0737V34.4606C103.823 34.4877 103.664 34.5057 103.356 34.5057C102.357 34.5057 101.918 34.0551 101.918 33.0278V27.9814H104.196V26.3503H101.918V23.9262H99.9111ZM109.173 34.5868C107.427 34.5868 106.447 33.3522 106.447 31.2075C106.447 29.0808 107.427 27.8372 109.173 27.8372C110.909 27.8372 111.899 29.0808 111.899 31.2075C111.899 33.3432 110.909 34.5868 109.173 34.5868ZM109.173 36.308C112.142 36.308 113.962 34.3886 113.962 31.2075C113.962 28.0445 112.132 26.116 109.173 26.116C106.204 26.116 104.374 28.0445 104.374 31.2075C104.374 34.3886 106.195 36.308 109.173 36.308ZM114.878 36.1188H116.885V30.3244C116.885 28.9456 117.959 28.0174 119.471 28.0174C119.807 28.0174 120.423 28.0805 120.582 28.1346V26.2242C120.367 26.1701 119.984 26.1431 119.695 26.1431C118.369 26.1431 117.249 26.846 116.96 27.8102H116.81V26.3053H114.878V36.1188ZM125.101 27.7651C126.586 27.7651 127.556 28.7654 127.603 30.3064H122.468C122.58 28.7744 123.617 27.7651 125.101 27.7651ZM127.594 33.4694C127.22 34.2354 126.389 34.6589 125.176 34.6589C123.57 34.6589 122.534 33.5685 122.468 31.8473V31.7392H129.648V31.0633C129.648 27.9814 127.939 26.116 125.11 26.116C122.244 26.116 120.424 28.1076 120.424 31.2436C120.424 34.3795 122.207 36.308 125.12 36.308C127.444 36.308 129.069 35.2266 129.526 33.4694H127.594Z" fill="white"/>
<path fill-rule="evenodd" clip-rule="evenodd" d="M39.8568 23.9377C39.8281 20.6029 42.4707 18.9806 42.5915 18.9051C41.0949 16.6257 38.7752 16.3142 37.9601 16.2894C36.0118 16.0752 34.122 17.5072 33.1296 17.5072C32.1173 17.5072 30.589 16.3101 28.9419 16.3453C26.8223 16.3794 24.8393 17.6614 23.7518 19.6521C21.5074 23.7111 23.1813 29.6759 25.3316 32.9569C26.4073 34.5647 27.6642 36.3578 29.3093 36.2947C30.9188 36.2264 31.5201 35.2228 33.4624 35.2228C35.3869 35.2228 35.9514 36.2947 37.6293 36.2533C39.3567 36.2264 40.4442 34.6403 41.4822 33.0179C42.7252 31.1783 43.2244 29.3624 43.2442 29.2693C43.2046 29.2559 39.8905 27.9346 39.8568 23.9377Z" fill="white"/>
<path fill-rule="evenodd" clip-rule="evenodd" d="M36.6873 14.1307C37.553 12.9998 38.1453 11.4612 37.9809 9.8999C36.7279 9.95784 35.161 10.8052 34.2587 11.9113C33.4604 12.886 32.7472 14.4835 32.9315 15.9858C34.3389 16.0955 35.784 15.244 36.6873 14.1307Z" fill="white"/>
<defs>
<linearGradient id="paint0_linear" x1="-73.311" y1="23.4997" x2="-46.6365" y2="109.207" gradientUnits="userSpaceOnUse">
<stop stop-color="#398FE6"/>
<stop offset="1" stop-color="#6078EA"/>
</linearGradient>
</defs>
</svg>
