<svg width="185" height="187" viewBox="0 0 185 187" fill="none" xmlns="http://www.w3.org/2000/svg">
<path fill-rule="evenodd" clip-rule="evenodd" d="M90 29.732C91.8564 28.6603 94.1436 28.6603 96 29.7321L147.158 59.268C149.014 60.3397 150.158 62.3205 150.158 64.4641V123.536C150.158 125.679 149.014 127.66 147.158 128.732L96 158.268C94.1436 159.34 91.8564 159.34 90 158.268L38.8423 128.732C36.9859 127.66 35.8423 125.679 35.8423 123.536V64.4641C35.8423 62.3205 36.9859 60.3397 38.8423 59.268L90 29.732Z" fill="#017DE5"/>
<path opacity="0.1" fill-rule="evenodd" clip-rule="evenodd" d="M134.405 38.8923C136.516 39.2645 138.268 40.7347 139.001 42.749L160.744 102.487C161.477 104.501 161.08 106.754 159.702 108.396L118.839 157.095C117.461 158.737 115.312 159.519 113.201 159.147L50.5949 148.108C48.4839 147.735 46.7318 146.265 45.9986 144.251L24.2558 84.5129C23.5227 82.4986 23.9198 80.2462 25.2977 78.6041L66.1609 29.9053C67.5387 28.2632 69.688 27.4809 71.799 27.8531L134.405 38.8923Z" fill="#017DE5"/>
<path fill-rule="evenodd" clip-rule="evenodd" d="M81 102.083C80.833 102.083 80.665 102.041 80.513 101.956C80.152 101.755 79.952 101.352 80.011 100.941L80.773 95.603C78.367 93.692 77 90.967 77 88.042C77 82.504 81.935 78 88 78C92.147 78 95.898 80.099 97.79 83.479C98.061 83.96 97.889 84.57 97.406 84.84C96.925 85.11 96.314 84.938 96.046 84.456C94.507 81.708 91.424 80 88 80C83.038 80 79 83.607 79 88.042C79 90.506 80.248 92.803 82.424 94.344C82.73 94.56 82.889 94.93 82.836 95.302L82.358 98.652L84.499 96.867C84.923 96.513 85.553 96.571 85.907 96.995C86.261 97.42 86.203 98.051 85.779 98.404L81.64 101.852C81.457 102.005 81.229 102.083 81 102.083ZM90.513 109.873C90.665 109.958 90.833 110 91 110C91.229 110 91.457 109.922 91.64 109.769L96.306 105.88C96.866 105.96 97.435 106 98 106C104.065 106 109 101.496 109 95.958C109 90.42 104.065 85.916 98 85.916C91.935 85.916 87 90.421 87 95.958C87 98.884 88.367 101.607 90.773 103.519L90.011 108.858C89.952 109.269 90.152 109.672 90.513 109.873ZM89 95.959C89 91.524 93.038 87.917 98 87.917C102.963 87.917 107 91.524 107 95.958C107 100.393 102.963 104 98 104C97.396 104 96.789 103.945 96.195 103.838C95.904 103.782 95.604 103.865 95.375 104.053L92.357 106.569L92.836 103.218C92.889 102.847 92.73 102.477 92.424 102.26C90.248 100.72 89 98.423 89 95.959ZM96 96C96 96.5523 95.5523 97 95 97C94.4477 97 94 96.5523 94 96C94 95.4477 94.4477 95 95 95C95.5523 95 96 95.4477 96 96ZM98 97C98.5523 97 99 96.5523 99 96C99 95.4477 98.5523 95 98 95C97.4477 95 97 95.4477 97 96C97 96.5523 97.4477 97 98 97ZM102 96C102 96.5523 101.552 97 101 97C100.448 97 100 96.5523 100 96C100 95.4477 100.448 95 101 95C101.552 95 102 95.4477 102 96Z" fill="white"/>
</svg>
