<svg width="40" height="40" viewBox="0 0 40 40" fill="none" xmlns="http://www.w3.org/2000/svg">
<path opacity="0.3" d="M39.5 20C39.5 30.7696 30.7696 39.5 20 39.5C9.23045 39.5 0.5 30.7696 0.5 20C0.5 9.23045 9.23045 0.5 20 0.5C30.7696 0.5 39.5 9.23045 39.5 20Z" stroke="#8D95A6"/>
<path d="M22.5 17.6509H20.5133V16.2671C20.5133 15.7474 20.8376 15.6262 21.0661 15.6262C21.294 15.6262 22.468 15.6262 22.468 15.6262V13.3415L20.5372 13.3335C18.3939 13.3335 17.9062 15.0375 17.9062 16.1279V17.6509H16.6666V20.0051H17.9062C17.9062 23.0265 17.9062 26.6668 17.9062 26.6668H20.5133C20.5133 26.6668 20.5133 22.9906 20.5133 20.0051H22.2726L22.5 17.6509Z" fill="#8D95A6"/>
</svg>
