<svg width="40" height="40" viewBox="0 0 40 40" fill="none" xmlns="http://www.w3.org/2000/svg">
<path opacity="0.3" d="M39.5 20C39.5 30.7696 30.7696 39.5 20 39.5C9.23045 39.5 0.5 30.7696 0.5 20C0.5 9.23045 9.23045 0.5 20 0.5C30.7696 0.5 39.5 9.23045 39.5 20Z" stroke="#8D95A6"/>
<path fill-rule="evenodd" clip-rule="evenodd" d="M17.3554 21.7855C17.3524 21.0469 17.3494 20.3083 17.3524 19.5697C19.3753 19.5635 21.3982 19.5604 23.4241 19.5759C23.5454 21.3138 23.321 23.1634 22.2777 24.6002C20.6976 26.875 17.5253 27.5391 15.0505 26.5646C12.5666 25.5964 10.8076 22.912 11.0169 20.1749C11.0715 16.8264 14.08 13.8937 17.3524 14.0054C18.9204 13.9309 20.3943 14.6292 21.5953 15.6099C21.0827 16.2057 20.552 16.7798 19.9849 17.3167C18.5413 16.2957 16.4881 16.004 15.0445 17.1833C12.9791 18.6449 12.8851 22.0958 14.8716 23.6692C16.8035 25.4629 20.455 24.5723 20.9888 21.8258C20.52 21.8186 20.0508 21.817 19.5815 21.8153C18.8393 21.8128 18.0968 21.8102 17.3554 21.7855ZM29.1743 17.7126C29.1773 18.3275 29.1803 18.9455 29.1864 19.5604C29.4881 19.5635 29.7907 19.5651 30.0932 19.5666C30.3957 19.5682 30.6982 19.5697 31 19.5728V21.4193C30.6971 21.4224 30.3942 21.4248 30.0909 21.4271C29.7899 21.4294 29.4885 21.4317 29.1864 21.4348C29.1803 22.0555 29.1773 22.673 29.1743 23.2906H27.3667C27.3637 22.9819 27.3622 22.6732 27.3607 22.3644C27.3591 22.0556 27.3576 21.7468 27.3546 21.4379L25.541 21.4193V19.5728C26.1445 19.5666 26.748 19.5635 27.3546 19.5604C27.3576 18.9397 27.3637 18.3222 27.3697 17.7046H29.1743L29.1743 17.7126Z" fill="#8D95A6"/>
</svg>
