<svg width="152" height="48" viewBox="0 0 152 48" fill="none" xmlns="http://www.w3.org/2000/svg">
<rect width="152" height="48" rx="4.10256" fill="#2E4266"/>
<rect width="152" height="48" rx="4.10256" fill="url(#paint0_linear)" fill-opacity="0.4"/>
<path opacity="0.7" fill-rule="evenodd" clip-rule="evenodd" d="M82.594 14.514C82.594 16.2467 81.1869 17.6514 79.4511 17.6514C77.7153 17.6514 76.3082 16.2467 76.3082 14.514C76.3082 12.7812 77.7153 11.3765 79.4511 11.3765C81.1869 11.3765 82.594 12.7812 82.594 14.514ZM81.6337 14.514C81.6337 15.7173 80.6565 16.6928 79.4511 16.6928C78.2457 16.6928 77.2686 15.7173 77.2686 14.514C77.2686 13.3106 78.2457 12.3351 79.4511 12.3351C80.6565 12.3351 81.6337 13.3106 81.6337 14.514Z" fill="white"/>
<path opacity="0.7" fill-rule="evenodd" clip-rule="evenodd" d="M60.6812 11.6377H57.1891V11.7248V12.3349V14.1651V14.8623V16.7797V17.4769H58.1494H60.6812V16.7797H58.1494V14.8623H60.4193V14.1651H58.1494V12.3349H60.6812V11.6377Z" fill="white"/>
<path opacity="0.7" fill-rule="evenodd" clip-rule="evenodd" d="M63.1256 11.6377H61.6415V12.3349H63.1256V17.4769H64.0859V12.3349H65.5701V11.6377H64.0859H63.1256Z" fill="white"/>
<path opacity="0.7" fill-rule="evenodd" clip-rule="evenodd" d="M71.6813 11.6377H70.1971V12.3349H71.6813V17.4769H72.6416V12.3349H74.1257V11.6377H72.6416H71.6813Z" fill="white"/>
<path opacity="0.7" fill-rule="evenodd" clip-rule="evenodd" d="M68.3638 11.6377H69.3241V17.4769H68.3638V11.6377Z" fill="white"/>
<path opacity="0.7" fill-rule="evenodd" clip-rule="evenodd" d="M83.3798 11.6377H83.5544H84.3401H84.5147L87.1338 15.9103V11.6377H88.0941V17.4769H87.1338L84.3401 12.9195V17.4769H83.3798V11.6377Z" fill="white"/>
<path opacity="0.7" fill-rule="evenodd" clip-rule="evenodd" d="M53.5517 17.616C55.2839 17.6315 56.7287 16.4134 56.4398 14.298C56.4398 14.2876 56.4397 14.2774 56.4397 14.2671H55.6716C55.6779 14.3554 55.68 14.4463 55.678 14.5397C55.6798 16.0506 54.807 16.7593 53.5777 16.7593C52.3485 16.7593 51.3519 15.7655 51.3519 14.5397C51.3519 13.3138 52.3485 12.3201 53.5777 12.3201C54.1927 12.3201 54.7257 12.5298 55.101 12.9124L55.7027 12.3125C55.1909 11.7736 54.4423 11.4634 53.5517 11.4634C51.848 11.4634 50.4668 12.8407 50.4668 14.5397C50.4668 16.2387 51.848 17.6135 53.5517 17.616Z" fill="white"/>
<path fill-rule="evenodd" clip-rule="evenodd" d="M109.893 22.0957H104.943V29.596L109.893 29.596C109.893 29.596 112.742 29.1121 112.742 25.8459C112.742 22.5796 109.893 22.0957 109.893 22.0957ZM109.264 23.9099H105.904V27.9349H109.264C109.264 27.9349 110.793 27.9349 110.793 25.9224C110.793 23.9099 109.264 23.9099 109.264 23.9099Z" fill="white"/>
<rect x="104.507" y="22.0957" width="1.74604" height="12.2014" fill="white"/>
<rect x="113.761" y="22.0957" width="1.74604" height="12.2014" fill="white"/>
<path fill-rule="evenodd" clip-rule="evenodd" d="M120.171 26.1919C117.729 26.1919 116.916 27.8668 116.916 27.8668L118.37 28.7248C118.37 28.7248 118.721 27.8668 120.311 27.8668C121.468 27.8668 121.854 28.7392 121.978 29.214V29.5725C121.471 29.3264 120.374 28.9388 118.807 29.1714C116.681 29.4869 116.724 31.4057 116.73 31.7086C116.731 31.7211 116.731 31.7308 116.731 31.7376C116.731 31.9085 116.732 34.4428 119.514 34.2693C120.729 34.1936 121.498 33.8208 121.978 33.4247V34.2932H123.724V28.997L123.725 28.9868C123.725 28.2826 123.208 26.1919 120.171 26.1919ZM118.373 31.7926C118.49 29.9061 121.854 30.8112 121.854 30.8112C121.854 30.8112 121.899 31.0107 121.899 31.4359C121.6 32.7732 118.256 33.6791 118.373 31.7926Z" fill="white"/>
<path fill-rule="evenodd" clip-rule="evenodd" d="M127.874 31.7645L125.634 26.4536H123.888L127.001 33.8344L125.372 37.6963H127.118L131.842 26.4958H130.096L127.874 31.7645Z" fill="white"/>
<path fill-rule="evenodd" clip-rule="evenodd" d="M96.905 26.1919C99.8323 26.1919 100.598 29.3055 100.598 29.3055L95.0757 31.5838C95.0757 31.5838 95.4323 32.8439 97.0926 32.8523C98.3927 32.859 99.1266 31.702 99.1266 31.702L100.528 32.6492C100.528 32.6492 99.397 34.4746 97.0816 34.4746C94.2362 34.4746 92.9829 31.9907 92.9829 30.3777C92.9829 28.8235 93.9777 26.1919 96.905 26.1919ZM96.7365 27.7994C97.802 27.6048 98.4968 28.6601 98.4968 28.6601L94.7662 30.1801C94.7662 30.1801 94.4825 28.2111 96.7365 27.7994Z" fill="white"/>
<rect x="90.3639" y="22.0957" width="1.84721" height="12.1757" fill="white"/>
<path fill-rule="evenodd" clip-rule="evenodd" d="M87.4078 27.2163V26.4565L89.1154 26.4712V34.1537C89.1154 36.1166 87.9447 38.1886 85.1888 38.1886C82.4328 38.1886 81.5428 35.751 81.5428 35.751L83.111 35.0926C83.111 35.0926 83.5893 36.5949 85.2703 36.5949C87.1846 36.5949 87.408 34.8563 87.408 34.2612V33.4274C87.408 33.4274 86.7457 34.4623 85.1005 34.4623C83.3168 34.4623 81.1971 32.9367 81.1971 30.3358C81.1971 27.735 83.1931 26.2473 85.1211 26.1932C86.6655 26.1498 87.4078 27.2163 87.4078 27.2163ZM87.501 30.3578C87.501 31.7624 86.4915 32.9011 85.2463 32.9011C84.0011 32.9011 82.9916 31.7624 82.9916 30.3578C82.9916 28.9531 84.0011 27.8144 85.2463 27.8144C86.4915 27.8144 87.501 28.9531 87.501 30.3578Z" fill="white"/>
<path fill-rule="evenodd" clip-rule="evenodd" d="M80.4301 30.3316C80.4301 32.618 78.5693 34.4714 76.2739 34.4714C73.9785 34.4714 72.1177 32.618 72.1177 30.3316C72.1177 28.0453 73.9785 26.1919 76.2739 26.1919C78.5693 26.1919 80.4301 28.0453 80.4301 30.3316ZM78.5829 30.3316C78.5829 31.7214 77.537 32.848 76.2467 32.848C74.9565 32.848 73.9106 31.7214 73.9106 30.3316C73.9106 28.9419 74.9565 27.8153 76.2467 27.8153C77.537 27.8153 78.5829 28.9419 78.5829 30.3316Z" fill="white"/>
<path fill-rule="evenodd" clip-rule="evenodd" d="M71.4381 30.3316C71.4381 32.618 69.5772 34.4714 67.2818 34.4714C64.9864 34.4714 63.1256 32.618 63.1256 30.3316C63.1256 28.0453 64.9864 26.1919 67.2818 26.1919C69.5772 26.1919 71.4381 28.0453 71.4381 30.3316ZM69.5908 30.3316C69.5908 31.7214 68.5449 32.848 67.2547 32.848C65.9644 32.848 64.9185 31.7214 64.9185 30.3316C64.9185 28.9419 65.9644 27.8153 67.2547 27.8153C68.5449 27.8153 69.5908 28.9419 69.5908 30.3316Z" fill="white"/>
<path fill-rule="evenodd" clip-rule="evenodd" d="M56.4683 34.4852C60.0834 34.5177 63.0986 31.9785 62.4956 27.5689C62.4956 27.5474 62.4956 27.5259 62.4954 27.5045H60.8925C60.9055 27.6886 60.9101 27.8781 60.9058 28.0727C60.9096 31.2222 59.0881 32.6995 56.5227 32.6995C53.9572 32.6995 51.8775 30.628 51.8775 28.0727C51.8775 25.5174 53.9572 23.4459 56.5227 23.4459C57.8061 23.4459 58.9185 23.8832 59.7017 24.6808L60.9573 23.4301C59.8893 22.3069 58.3269 21.6602 56.4683 21.6602C52.9127 21.6602 50.0303 24.5312 50.0303 28.0727C50.0303 31.6143 52.9127 34.4802 56.4683 34.4852Z" fill="white"/>
<path fill-rule="evenodd" clip-rule="evenodd" d="M39.5046 21.6345C41.3554 22.6889 41.3554 25.3567 39.5047 26.4112L24.3188 35.0635C22.4863 36.1076 20.2092 34.7842 20.2092 32.6752L20.2092 15.3708C20.2092 13.2617 22.4863 11.9383 24.3188 12.9824L39.5046 21.6345Z" fill="#F7FBFB"/>
<mask id="mask0" mask-type="alpha" maskUnits="userSpaceOnUse" x="20" y="12" width="21" height="24">
<path fill-rule="evenodd" clip-rule="evenodd" d="M39.5046 21.6345C41.3554 22.6889 41.3554 25.3567 39.5047 26.4112L24.3188 35.0635C22.4863 36.1076 20.2092 34.7842 20.2092 32.6752L20.2092 15.3708C20.2092 13.2617 22.4863 11.9383 24.3188 12.9824L39.5046 21.6345Z" fill="white"/>
</mask>
<g mask="url(#mask0)">
<path fill-rule="evenodd" clip-rule="evenodd" d="M20.173 11.7163L32.3767 23.8249L20.0154 36.412L20.173 11.7163Z" fill="white" stroke="#1D3052" stroke-width="1.32"/>
<path fill-rule="evenodd" clip-rule="evenodd" d="M17.6635 9.22363L32.3752 23.8285L36.7492 19.6629L17.6635 9.22363Z" fill="white" stroke="#223557" stroke-width="1.32"/>
<path fill-rule="evenodd" clip-rule="evenodd" d="M32.3773 23.8257L39.0734 30.5635L19.0693 37.3013L32.3773 23.8257Z" fill="white" stroke="#223557" stroke-width="1.32"/>
</g>
<defs>
<linearGradient id="paint0_linear" x1="76" y1="-24" x2="48.4332" y2="63.2947" gradientUnits="userSpaceOnUse">
<stop stop-color="white" stop-opacity="0.5"/>
<stop offset="1" stop-opacity="0.5"/>
</linearGradient>
</defs>
</svg>
