<svg width="32" height="32" viewBox="0 0 32 32" fill="none" xmlns="http://www.w3.org/2000/svg">
<g id="ic_tokens">
<path id="Oval 5" fill-rule="evenodd" clip-rule="evenodd" d="M16 32C24.8366 32 32 24.8366 32 16C32 7.16344 24.8366 0 16 0C7.16344 0 0 7.16344 0 16C0 24.8366 7.16344 32 16 32Z" fill="#23B36B"/>
<path id="Shape" fill-rule="evenodd" clip-rule="evenodd" d="M13.1096 23.6419C14.0999 25.5912 15.2294 26 16.0019 26C18.1319 26 19.8168 22.8885 20.2724 18.4498C21.6167 17.477 22.7584 16.42 23.5898 15.3681C24.9439 13.655 25.3368 12.1037 24.6967 11C24.317 10.3444 23.421 9.58187 21.278 9.68C20.9316 9.69562 20.6643 9.98812 20.68 10.3325C20.6957 10.6781 20.9937 10.9419 21.3357 10.9288C22.4916 10.875 23.3231 11.1294 23.6098 11.625C23.965 12.2375 23.5891 13.3481 22.6039 14.595C22.0205 15.3338 21.265 16.0783 20.3821 16.7922C20.3903 16.5314 20.3945 16.2672 20.3945 16C20.3945 10.2987 18.5056 6 16.0019 6C14.2818 6 12.8147 8.01938 12.0774 11.4019C12.004 11.7394 12.2186 12.0719 12.5574 12.145C12.8969 12.2188 13.2301 12.0044 13.3036 11.6669C13.8796 9.025 14.964 7.25 16.0019 7.25C17.4859 7.25 19.1394 10.8438 19.1394 16C19.1394 16.6112 19.1162 17.2004 19.0728 17.7643C18.5951 18.0907 18.0927 18.406 17.5706 18.7062C15.4609 19.9194 13.2973 20.7312 11.4794 20.9919C9.90368 21.2194 8.74905 20.9881 8.39388 20.375C8.03871 19.7625 8.41459 18.6512 9.40041 17.405C9.53612 17.2332 9.68114 17.0612 9.8349 16.8892C10.8013 17.7927 11.9443 18.654 13.1492 19.3981C13.2521 19.4619 13.3663 19.4919 13.4793 19.4919C13.6888 19.4919 13.8947 19.3869 14.0133 19.1962C14.1959 18.9025 14.1049 18.5175 13.8106 18.3356C12.5836 17.578 11.5436 16.78 10.7073 16.0016C11.7358 15.042 13.0116 14.1121 14.4337 13.2944C15.3486 12.7681 16.2805 12.3137 17.2036 11.945C17.5255 11.8162 17.6817 11.4525 17.5524 11.1319C17.4238 10.8112 17.0586 10.6569 16.7367 10.7844C15.7578 11.1756 14.7726 11.6556 13.8062 12.2112C12.2946 13.0802 10.9329 14.0757 9.82831 15.1095C8.50728 13.6358 7.98802 12.3253 8.39388 11.625C8.67312 11.1425 9.43179 10.8969 10.5463 10.9244C10.8751 10.93 11.1819 10.6613 11.1913 10.3169C11.2008 9.9725 10.9278 9.68438 10.5814 9.675C8.53444 9.61187 7.67475 10.3637 7.30703 11C6.51116 12.3727 7.33397 14.2179 8.95226 15.9972C8.76086 16.2085 8.58114 16.4203 8.41396 16.6319C7.05979 18.345 6.66696 19.8956 7.30703 21C7.81218 21.8719 8.88209 22.3275 10.3768 22.3275C10.7747 22.3275 11.2026 22.295 11.6582 22.2294C13.6299 21.9462 15.9523 21.0794 18.1975 19.7887C18.4302 19.655 18.6594 19.5182 18.8846 19.3788C18.3644 22.6591 17.1339 24.75 16.0019 24.75C15.4151 24.75 14.7694 24.14 14.2291 23.0775C14.0729 22.7687 13.6951 22.6462 13.3858 22.8019C13.077 22.9581 12.9528 23.3344 13.1096 23.6419ZM8.95226 15.9972C9.22192 15.6996 9.51476 15.403 9.82831 15.1095C10.0901 15.4016 10.3835 15.7002 10.7073 16.0016C10.3923 16.2955 10.1006 16.5922 9.8349 16.8892C9.52069 16.5955 9.22516 16.2973 8.95226 15.9972ZM18.8846 19.3788C18.9655 18.8683 19.0293 18.329 19.0728 17.7643C19.5337 17.4493 19.9717 17.1241 20.3821 16.7922C20.3643 17.3619 20.3273 17.9154 20.2724 18.4498C19.8304 18.7696 19.3665 19.0803 18.8846 19.3788ZM21.6438 22.3281C21.5096 22.3281 21.3696 22.3244 21.2253 22.3169C20.8789 22.2987 20.6128 22.0044 20.631 21.66C20.6492 21.3144 20.9467 21.0481 21.2905 21.0681C22.474 21.1331 23.3187 20.8775 23.6098 20.375C23.9186 19.8425 23.6776 18.93 22.9491 17.8719C22.7533 17.5869 22.8267 17.1981 23.1122 17.0025C23.3996 16.8075 23.7887 16.8819 23.9851 17.165C25.3016 19.0788 25.0983 20.3069 24.6973 21C24.3378 21.6188 23.5176 22.3281 21.6438 22.3281ZM16.0019 17.875C14.964 17.875 14.1193 17.0338 14.1193 16C14.1193 14.9662 14.964 14.125 16.0019 14.125C17.0398 14.125 17.8844 14.9662 17.8844 16C17.8844 17.0338 17.0398 17.875 16.0019 17.875ZM15.3743 16C15.3743 15.6556 15.6561 15.375 16.0019 15.375C16.3476 15.375 16.6294 15.6556 16.6294 16C16.6294 16.3444 16.3476 16.625 16.0019 16.625C15.6561 16.625 15.3743 16.3444 15.3743 16Z" fill="white"/>
</g>
</svg>
