<svg width="40" height="40" viewBox="0 0 40 40" fill="none" xmlns="http://www.w3.org/2000/svg">
<path opacity="0.3" d="M39.5 20C39.5 30.7696 30.7696 39.5 20 39.5C9.23045 39.5 0.5 30.7696 0.5 20C0.5 9.23045 9.23045 0.5 20 0.5C30.7696 0.5 39.5 9.23045 39.5 20Z" stroke="#8D95A6"/>
<path fill-rule="evenodd" clip-rule="evenodd" d="M26.7097 13.3226C25.871 12.4516 24.6774 12 23.3226 12H16.6774C13.871 12 12 13.871 12 16.6774V23.2903C12 24.6774 12.4516 25.871 13.3548 26.7419C14.2258 27.5806 15.3871 28 16.7097 28H23.2903C24.6774 28 25.8387 27.5484 26.6774 26.7419C27.5484 25.9032 28 24.7097 28 23.3226V16.6774C28 15.3226 27.5484 14.1613 26.7097 13.3226ZM26.5806 23.3226C26.5806 24.3226 26.2258 25.129 25.6452 25.6774C25.0645 26.2258 24.2581 26.5161 23.2903 26.5161H16.7097C15.7419 26.5161 14.9355 26.2258 14.3548 25.6774C13.7742 25.0968 13.4839 24.2903 13.4839 23.2903V16.6774C13.4839 15.7097 13.7742 14.9032 14.3548 14.3226C14.9032 13.7742 15.7419 13.4839 16.7097 13.4839H23.3548C24.3226 13.4839 25.129 13.7742 25.7097 14.3548C26.2581 14.9355 26.5806 15.7419 26.5806 16.6774V23.3226ZM15.871 19.9677C15.871 17.6774 17.7419 15.8387 20 15.8387C22.2581 15.8387 24.129 17.7097 24.129 19.9677C24.129 22.2258 22.2903 24.0968 20 24.0968C17.7097 24.0968 15.871 22.2581 15.871 19.9677ZM20 22.6129C18.5484 22.6129 17.3548 21.4194 17.3548 19.9677C17.3548 18.5161 18.5484 17.3226 20 17.3226C21.4516 17.3226 22.6452 18.5161 22.6452 19.9677C22.6452 21.4194 21.4516 22.6129 20 22.6129ZM25.2258 15.7419C25.2258 16.2586 24.807 16.6774 24.2903 16.6774C23.7737 16.6774 23.3548 16.2586 23.3548 15.7419C23.3548 15.2253 23.7737 14.8065 24.2903 14.8065C24.807 14.8065 25.2258 15.2253 25.2258 15.7419Z" fill="#8D95A6"/>
</svg>
