<svg width="155" height="24" viewBox="0 0 155 24" fill="none" xmlns="http://www.w3.org/2000/svg">
<path fill-rule="evenodd" clip-rule="evenodd" d="M0 24L11.4166 0L22.833 24H18.2978L11.4166 9.53395L6.48251 19.9064H11.4166L13.2557 24H0ZM27.7328 24L16.3165 0H39.1495L37.2023 4.09348H22.7989L25.1248 8.98288H34.7644L32.9882 13.0765H27.072L30.0005 19.233L27.7328 24Z" fill="#8D95A6"/>
<path d="M113.205 9.85802V11.6153H117.381V14.2221H113.205V17.5023H109.83V7.25146H117.967V9.85802H113.205Z" fill="#8D95A6"/>
<path d="M121.013 16.4627C120.155 15.6133 119.726 14.4223 119.726 12.8895V7.25146H123.101V12.7869C123.101 13.5387 123.232 14.0854 123.494 14.427C123.756 14.7689 124.135 14.9397 124.631 14.9397C125.127 14.9397 125.506 14.7689 125.768 14.427C126.03 14.0854 126.161 13.5387 126.161 12.7869V7.25146H129.479V12.8895C129.479 14.4223 129.05 15.6133 128.192 16.4627C127.334 17.3119 126.137 17.7367 124.602 17.7367C123.067 17.7367 121.871 17.3119 121.013 16.4627Z" fill="#8D95A6"/>
<path d="M141.724 7.25146V17.5025H138.95L135.145 12.8456V17.5025H131.856V7.25146H134.631L138.435 11.9082V7.25146H141.724Z" fill="#8D95A6"/>
<path fill-rule="evenodd" clip-rule="evenodd" d="M149.24 7.25146H144.306V17.5023H149.24C150.355 17.5023 151.34 17.2951 152.193 16.8801C153.046 16.4651 153.709 15.8722 154.181 15.1007C154.653 14.3296 154.889 13.4217 154.889 12.3768C154.889 11.3323 154.653 10.4243 154.181 9.65306C153.709 8.88195 153.046 8.28882 152.193 7.87368C151.34 7.45887 150.355 7.25146 149.24 7.25146ZM150.835 14.1709C150.401 14.5955 149.821 14.8078 149.097 14.8078H147.681V9.94595H149.097C149.821 9.94595 150.401 10.1583 150.835 10.5829C151.268 11.0077 151.485 11.6057 151.485 12.3768C151.485 13.1482 151.268 13.7461 150.835 14.1709Z" fill="#8D95A6"/>
<path fill-rule="evenodd" clip-rule="evenodd" d="M47.9812 17.5025L48.6533 15.7157H52.4575L53.1296 17.5025H56.6191L52.243 7.25146H48.9251L44.5489 17.5025H47.9812ZM50.5554 10.6489L51.5279 13.2264H49.5829L50.5554 10.6489Z" fill="#8D95A6"/>
<path fill-rule="evenodd" clip-rule="evenodd" d="M61.4909 14.925H62.4062L64.108 17.5023H67.7119L65.6096 14.3392C66.2197 14.0169 66.6868 13.5827 67.0112 13.0358C67.335 12.4891 67.4974 11.8495 67.4974 11.1175C67.4974 10.3366 67.3116 9.65306 66.9397 9.06729C66.5678 8.48152 66.0387 8.03255 65.3522 7.72005C64.6657 7.40771 63.86 7.25146 62.9353 7.25146H58.1159V17.5023H61.4909V14.925ZM62.7208 9.91653C63.1784 9.91653 63.5216 10.0216 63.7505 10.2315C63.9794 10.4415 64.0936 10.7367 64.0936 11.1175C64.0936 11.4981 63.9794 11.7936 63.7505 12.0035C63.5216 12.2135 63.1784 12.3183 62.7208 12.3183H61.4909V9.91653H62.7208Z" fill="#8D95A6"/>
<path d="M77.9312 14.8958V17.5025H69.6079V7.25146H77.7452V9.85818H72.9258V11.059H77.159V13.5485H72.9258V14.8958H77.9312Z" fill="#8D95A6"/>
<path d="M81.2697 16.4627C80.4117 15.6133 79.9826 14.4223 79.9826 12.8895V7.25146H83.3578V12.7869C83.3578 13.5387 83.4887 14.0854 83.7509 14.427C84.013 14.7689 84.3921 14.9397 84.8878 14.9397C85.3836 14.9397 85.7625 14.7689 86.0249 14.427C86.287 14.0854 86.4182 13.5387 86.4182 12.7869V7.25146H89.736V12.8895C89.736 14.4223 89.307 15.6133 88.4489 16.4627C87.5908 17.3119 86.3942 17.7367 84.8592 17.7367C83.3243 17.7367 82.1278 17.3119 81.2697 16.4627Z" fill="#8D95A6"/>
<path d="M101.051 17.5025L101.023 12.831L98.849 16.5799H97.3616L95.1879 12.992V17.5025H92.1131V7.25146H94.8876L98.1483 12.7138L101.323 7.25146H104.098L104.126 17.5025H101.051Z" fill="#8D95A6"/>
</svg>
