<svg width="185" height="187" viewBox="0 0 185 187" fill="none" xmlns="http://www.w3.org/2000/svg">
<path opacity="0.3" fill-rule="evenodd" clip-rule="evenodd" d="M134.405 38.8923C136.516 39.2645 138.268 40.7347 139.001 42.749L160.744 102.487C161.477 104.501 161.08 106.754 159.702 108.396L118.839 157.095C117.461 158.737 115.312 159.519 113.201 159.147L50.5949 148.108C48.4839 147.735 46.7318 146.265 45.9987 144.251L24.2558 84.5129C23.5227 82.4986 23.9199 80.2462 25.2977 78.6041L66.1609 29.9053C67.5388 28.2632 69.688 27.4809 71.799 27.8531L134.405 38.8923Z" fill="#EBFAF3"/>
<path opacity="0.7" fill-rule="evenodd" clip-rule="evenodd" d="M90 29.732C91.8564 28.6603 94.1436 28.6603 96 29.7321L147.158 59.268C149.014 60.3397 150.158 62.3205 150.158 64.4641V123.536C150.158 125.679 149.014 127.66 147.158 128.732L96 158.268C94.1436 159.34 91.8564 159.34 90 158.268L38.8423 128.732C36.9859 127.66 35.8423 125.679 35.8423 123.536V64.4641C35.8423 62.3205 36.9859 60.3397 38.8423 59.268L90 29.732Z" fill="#EBFAF3"/>
<path fill-rule="evenodd" clip-rule="evenodd" d="M86.7363 106.227C88.3143 109.346 90.1143 110 91.3453 110C94.7396 110 97.4247 105.022 98.1508 97.9196C100.293 96.3633 102.112 94.672 103.437 92.989C105.595 90.248 106.221 87.766 105.201 86C104.596 84.951 103.168 83.731 99.7533 83.888C99.2013 83.913 98.7753 84.381 98.8003 84.932C98.8253 85.485 99.3003 85.907 99.8453 85.886C101.687 85.8 103.012 86.207 103.469 87C104.035 87.98 103.436 89.757 101.866 91.752C100.936 92.934 99.7325 94.1253 98.3256 95.2675C98.3387 94.8502 98.3453 94.4276 98.3453 94C98.3453 84.878 95.3353 78 91.3453 78C88.6043 78 86.2663 81.231 85.0913 86.643C84.9743 87.183 85.3163 87.715 85.8563 87.832C86.3973 87.95 86.9283 87.607 87.0453 87.067C87.9633 82.84 89.6913 80 91.3453 80C93.7103 80 96.3453 85.75 96.3453 94C96.3453 94.9779 96.3083 95.9207 96.239 96.8229C95.4779 97.3451 94.6773 97.8497 93.8453 98.33C90.4833 100.271 87.0353 101.57 84.1383 101.987C81.6273 102.351 79.7873 101.981 79.2213 101C78.6553 100.02 79.2543 98.242 80.8253 96.248C81.0415 95.9732 81.2726 95.6979 81.5177 95.4228C83.0577 96.8683 84.8793 98.2464 86.7993 99.437C86.9633 99.539 87.1453 99.587 87.3253 99.587C87.6593 99.587 87.9873 99.419 88.1763 99.114C88.4673 98.644 88.3223 98.028 87.8533 97.737C85.8979 96.5248 84.2407 95.248 82.908 94.0026C84.5469 92.4672 86.58 90.9794 88.8463 89.671C90.3043 88.829 91.7893 88.102 93.2603 87.512C93.7733 87.306 94.0223 86.724 93.8163 86.211C93.6113 85.698 93.0293 85.451 92.5163 85.655C90.9563 86.281 89.3863 87.049 87.8463 87.938C85.4374 89.3282 83.2674 90.9211 81.5072 92.5753C79.402 90.2173 78.5745 88.1205 79.2213 87C79.6663 86.228 80.8753 85.835 82.6513 85.879C83.1753 85.888 83.6643 85.458 83.6793 84.907C83.6943 84.356 83.2593 83.895 82.7073 83.88C79.4453 83.779 78.0753 84.982 77.4893 86C76.221 88.1964 77.5322 91.1486 80.1111 93.9956C79.8061 94.3336 79.5197 94.6724 79.2533 95.011C77.0953 97.752 76.4693 100.233 77.4893 102C78.2943 103.395 79.9993 104.124 82.3813 104.124C83.0153 104.124 83.6973 104.072 84.4233 103.967C87.5653 103.514 91.2663 102.127 94.8443 100.062C95.2151 99.848 95.5803 99.6291 95.9392 99.406C95.1103 104.655 93.1492 108 91.3453 108C90.4103 108 89.3813 107.024 88.5203 105.324C88.2713 104.83 87.6693 104.634 87.1763 104.883C86.6843 105.133 86.4863 105.735 86.7363 106.227ZM80.1111 93.9956C80.5408 93.5193 81.0075 93.0448 81.5072 92.5753C81.9244 93.0426 82.3919 93.5202 82.908 94.0026C82.406 94.4728 81.941 94.9474 81.5177 95.4228C81.0169 94.9528 80.546 94.4757 80.1111 93.9956ZM95.9392 99.406C96.0682 98.5893 96.1697 97.7264 96.239 96.8229C96.9737 96.319 97.6716 95.7985 98.3256 95.2675C98.2972 96.179 98.2382 97.0647 98.1508 97.9196C97.4464 98.4314 96.7072 98.9285 95.9392 99.406ZM100.336 104.125C100.122 104.125 99.8993 104.119 99.6693 104.107C99.1173 104.078 98.6933 103.607 98.7223 103.056C98.7513 102.503 99.2253 102.077 99.7733 102.109C101.659 102.213 103.005 101.804 103.469 101C103.961 100.148 103.577 98.688 102.416 96.995C102.104 96.539 102.221 95.917 102.676 95.604C103.134 95.292 103.754 95.411 104.067 95.864C106.165 98.926 105.841 100.891 105.202 102C104.629 102.99 103.322 104.125 100.336 104.125ZM91.3453 97C89.6913 97 88.3453 95.654 88.3453 94C88.3453 92.346 89.6913 91 91.3453 91C92.9993 91 94.3453 92.346 94.3453 94C94.3453 95.654 92.9993 97 91.3453 97ZM90.3453 94C90.3453 93.449 90.7943 93 91.3453 93C91.8963 93 92.3453 93.449 92.3453 94C92.3453 94.551 91.8963 95 91.3453 95C90.7943 95 90.3453 94.551 90.3453 94Z" fill="#24B36B"/>
</svg>
