<svg width="185" height="187" viewBox="0 0 185 187" fill="none" xmlns="http://www.w3.org/2000/svg">
<path opacity="0.3" fill-rule="evenodd" clip-rule="evenodd" d="M134.405 38.8923C136.516 39.2645 138.268 40.7347 139.001 42.749L160.744 102.487C161.477 104.501 161.08 106.754 159.702 108.396L118.839 157.095C117.461 158.737 115.312 159.519 113.201 159.147L50.5949 148.108C48.4839 147.735 46.7318 146.265 45.9987 144.251L24.2558 84.5129C23.5227 82.4986 23.9199 80.2462 25.2977 78.6041L66.1609 29.9053C67.5388 28.2632 69.688 27.4809 71.799 27.8531L134.405 38.8923Z" fill="#FDF0F0"/>
<path opacity="0.7" fill-rule="evenodd" clip-rule="evenodd" d="M90 29.732C91.8564 28.6603 94.1436 28.6603 96 29.7321L147.158 59.268C149.014 60.3397 150.158 62.3205 150.158 64.4641V123.536C150.158 125.679 149.014 127.66 147.158 128.732L96 158.268C94.1436 159.34 91.8564 159.34 90 158.268L38.8423 128.732C36.9859 127.66 35.8423 125.679 35.8423 123.536V64.4641C35.8423 62.3205 36.9859 60.3397 38.8423 59.268L90 29.732Z" fill="#FDF0F0"/>
<path fill-rule="evenodd" clip-rule="evenodd" d="M89 109.999C88.87 109.999 88.737 109.974 88.61 109.92C88.163 109.731 87.917 109.247 88.026 108.774L90.743 96.9993H86C85.634 96.9993 85.297 96.7993 85.122 96.4773C84.947 96.1563 84.962 95.7643 85.161 95.4563L96.161 78.4563C96.426 78.0483 96.947 77.8903 97.39 78.0793C97.837 78.2683 98.084 78.7523 97.975 79.2253L95.257 90.9993H100C100.366 90.9993 100.703 91.1993 100.879 91.5213C101.054 91.8433 101.039 92.2353 100.84 92.5423L89.84 109.542C89.65 109.835 89.331 109.999 89 109.999ZM83.052 89.4103C83.209 89.5013 83.382 89.5443 83.551 89.5443C83.897 89.5443 84.233 89.3653 84.418 89.0443C84.694 88.5663 84.531 87.9543 84.052 87.6783L80.51 85.6333C80.031 85.3563 79.42 85.5203 79.144 85.9993C78.868 86.4773 79.031 87.0893 79.51 87.3653L83.052 89.4103ZM102.527 89.4993C102.181 89.4993 101.845 89.3203 101.66 88.9993C101.384 88.5213 101.548 87.9093 102.026 87.6333L105.49 85.6333C105.967 85.3573 106.58 85.5203 106.856 85.9993C107.132 86.4773 106.968 87.0893 106.49 87.3653L103.026 89.3653C102.869 89.4563 102.697 89.4993 102.527 89.4993ZM78 94.9993H82C82.552 94.9993 83 94.5513 83 93.9993C83 93.4473 82.552 92.9993 82 92.9993H78C77.448 92.9993 77 93.4473 77 93.9993C77 94.5513 77.448 94.9993 78 94.9993ZM104 94.9993H108C108.553 94.9993 109 94.5513 109 93.9993C109 93.4473 108.553 92.9993 108 92.9993H104C103.447 92.9993 103 93.4473 103 93.9993C103 94.5513 103.447 94.9993 104 94.9993ZM79.144 101.999C79.329 102.32 79.665 102.499 80.011 102.499C80.18 102.499 80.353 102.456 80.51 102.365L84.052 100.319C84.531 100.043 84.694 99.4323 84.418 98.9533C84.141 98.4743 83.53 98.3113 83.052 98.5873L79.51 100.633C79.031 100.909 78.868 101.52 79.144 101.999ZM105.989 102.499C105.819 102.499 105.647 102.456 105.49 102.365L102.026 100.365C101.548 100.089 101.384 99.4783 101.66 98.9993C101.936 98.5203 102.549 98.3553 103.026 98.6333L106.49 100.633C106.969 100.909 107.133 101.521 106.856 101.999C106.671 102.32 106.335 102.499 105.989 102.499ZM92 94.9993H87.838L94.744 84.3263L93.025 91.7743C92.957 92.0723 93.028 92.3843 93.217 92.6223C93.407 92.8603 93.695 92.9993 94 92.9993H98.162L91.256 103.673L92.975 96.2243C93.043 95.9273 92.972 95.6153 92.783 95.3773C92.593 95.1383 92.305 94.9993 92 94.9993Z" fill="#E6454A"/>
</svg>
