<svg width="694" height="315" viewBox="0 0 694 315" fill="none" xmlns="http://www.w3.org/2000/svg">
<path opacity="0.5" fill-rule="evenodd" clip-rule="evenodd" d="M25 243.779C25 243.779 59.8796 218.819 78.6667 214.21C97.4538 209.601 105.066 215.142 132.333 217.446C159.6 219.75 155.868 226.296 186 223.281C216.132 220.265 217.269 189.608 239 173.854C260.731 158.1 270.854 167.137 293.333 145.466C315.813 123.796 327.795 102.609 347 102.609C366.205 102.609 386.5 128.582 412.5 121.541C438.5 114.5 438.5 96.8022 455.5 78.5C472.5 60.1978 480.268 53.9392 508 53.9392C535.732 53.9392 546.383 76.8008 567.5 66.2387C588.617 55.6766 595.284 41.5706 622 39.8331C648.716 38.0956 669 21 669 21V293H25V243.779Z" fill="url(#paint0_linear)"/>
<g filter="url(#filter0_d)">
<path d="M25 242.779C25 242.779 59.8796 217.819 78.6667 213.21C97.4538 208.601 105.066 214.142 132.333 216.446C159.6 218.75 155.868 225.296 186 222.281C216.132 219.265 217.269 188.608 239 172.854C260.731 157.1 270.854 166.137 293.333 144.466C315.813 122.796 327.795 101.609 347 101.609C366.205 101.609 388 125.582 412.5 120.541C437 115.5 437 95.8022 453.5 79C470 62.1978 480.268 52.9392 508 52.9392C535.732 52.9392 546.383 75.8008 567.5 65.2387C588.617 54.6766 595.284 40.5706 622 38.8331C648.716 37.0956 669 20 669 20" stroke="url(#paint1_linear)" stroke-width="2"/>
</g>
<g filter="url(#filter1_d)">
<path fill-rule="evenodd" clip-rule="evenodd" d="M43 237C46.3137 237 49 234.314 49 231C49 227.686 46.3137 225 43 225C39.6863 225 37 227.686 37 231C37 234.314 39.6863 237 43 237Z" fill="#23BBF4"/>
<path fill-rule="evenodd" clip-rule="evenodd" d="M43 237C46.3137 237 49 234.314 49 231C49 227.686 46.3137 225 43 225C39.6863 225 37 227.686 37 231C37 234.314 39.6863 237 43 237Z" stroke="white" stroke-width="2"/>
</g>
<g filter="url(#filter2_d)">
<path fill-rule="evenodd" clip-rule="evenodd" d="M130 222C133.314 222 136 219.314 136 216C136 212.686 133.314 210 130 210C126.686 210 124 212.686 124 216C124 219.314 126.686 222 130 222Z" fill="#03A8EF"/>
<path fill-rule="evenodd" clip-rule="evenodd" d="M130 222C133.314 222 136 219.314 136 216C136 212.686 133.314 210 130 210C126.686 210 124 212.686 124 216C124 219.314 126.686 222 130 222Z" stroke="white" stroke-width="2"/>
</g>
<g filter="url(#filter3_d)">
<path fill-rule="evenodd" clip-rule="evenodd" d="M217 205C220.314 205 223 202.314 223 199C223 195.686 220.314 193 217 193C213.686 193 211 195.686 211 199C211 202.314 213.686 205 217 205Z" fill="#05A4F0"/>
<path fill-rule="evenodd" clip-rule="evenodd" d="M217 205C220.314 205 223 202.314 223 199C223 195.686 220.314 193 217 193C213.686 193 211 195.686 211 199C211 202.314 213.686 205 217 205Z" stroke="white" stroke-width="2"/>
</g>
<g filter="url(#filter4_d)">
<path fill-rule="evenodd" clip-rule="evenodd" d="M303 140C306.314 140 309 137.314 309 134C309 130.686 306.314 128 303 128C299.686 128 297 130.686 297 134C297 137.314 299.686 140 303 140Z" fill="#029BED"/>
<path fill-rule="evenodd" clip-rule="evenodd" d="M303 140C306.314 140 309 137.314 309 134C309 130.686 306.314 128 303 128C299.686 128 297 130.686 297 134C297 137.314 299.686 140 303 140Z" stroke="white" stroke-width="2"/>
</g>
<g filter="url(#filter5_d)">
<path fill-rule="evenodd" clip-rule="evenodd" d="M389 123C392.314 123 395 120.314 395 117C395 113.686 392.314 111 389 111C385.686 111 383 113.686 383 117C383 120.314 385.686 123 389 123Z" fill="#0194E9"/>
<path fill-rule="evenodd" clip-rule="evenodd" d="M389 123C392.314 123 395 120.314 395 117C395 113.686 392.314 111 389 111C385.686 111 383 113.686 383 117C383 120.314 385.686 123 389 123Z" stroke="white" stroke-width="2"/>
</g>
<g filter="url(#filter6_d)">
<path fill-rule="evenodd" clip-rule="evenodd" d="M476 65C479.314 65 482 62.3137 482 59C482 55.6863 479.314 53 476 53C472.686 53 470 55.6863 470 59C470 62.3137 472.686 65 476 65Z" fill="#028DE8"/>
<path fill-rule="evenodd" clip-rule="evenodd" d="M476 65C479.314 65 482 62.3137 482 59C482 55.6863 479.314 53 476 53C472.686 53 470 55.6863 470 59C470 62.3137 472.686 65 476 65Z" stroke="white" stroke-width="2"/>
</g>
<g filter="url(#filter7_d)">
<path fill-rule="evenodd" clip-rule="evenodd" d="M564 72C567.314 72 570 69.3137 570 66C570 62.6863 567.314 60 564 60C560.686 60 558 62.6863 558 66C558 69.3137 560.686 72 564 72Z" fill="white"/>
<path fill-rule="evenodd" clip-rule="evenodd" d="M564 72C567.314 72 570 69.3137 570 66C570 62.6863 567.314 60 564 60C560.686 60 558 62.6863 558 66C558 69.3137 560.686 72 564 72Z" stroke="#23B36B" stroke-width="2"/>
</g>
<g filter="url(#filter8_d)">
<path fill-rule="evenodd" clip-rule="evenodd" d="M651 37C654.314 37 657 34.3137 657 31C657 27.6863 654.314 25 651 25C647.686 25 645 27.6863 645 31C645 34.3137 647.686 37 651 37Z" fill="#027FE2"/>
<path fill-rule="evenodd" clip-rule="evenodd" d="M651 37C654.314 37 657 34.3137 657 31C657 27.6863 654.314 25 651 25C647.686 25 645 27.6863 645 31C645 34.3137 647.686 37 651 37Z" stroke="white" stroke-width="2"/>
</g>
<g clip-path="url(#clip0)">
<g filter="url(#filter9_dd)">
<path fill-rule="evenodd" clip-rule="evenodd" d="M522 16C520.343 16 519 17.3431 519 19V45C519 46.6569 520.343 48 522 48H559L563 52L567 48H603C604.657 48 606 46.6569 606 45V19C606 17.3431 604.657 16 603 16H522Z" fill="white"/>
</g>
<path fill-rule="evenodd" clip-rule="evenodd" d="M527 37L531.666 27L536.332 37H534.478L531.666 30.9725L529.649 35.2943H531.666L532.417 37H527ZM538.334 37L533.668 27H543L542.204 28.7056H536.318L537.268 30.7429H541.208L540.482 32.4485H538.064L539.261 35.0138L538.334 37Z" fill="#027FE2"/>
<path d="M556.364 33.812V35H551.78V33.812H553.484V29.624C553.412 29.72 553.3 29.82 553.148 29.924C552.996 30.028 552.828 30.124 552.644 30.212C552.46 30.3 552.268 30.376 552.068 30.44C551.868 30.496 551.692 30.524 551.54 30.524V29.288C551.7 29.288 551.884 29.24 552.092 29.144C552.308 29.048 552.512 28.936 552.704 28.808C552.904 28.68 553.076 28.552 553.22 28.424C553.372 28.296 553.46 28.204 553.484 28.148H554.84V33.812H556.364ZM561.076 32.168C561.324 32.216 561.552 32.304 561.76 32.432C561.968 32.552 562.144 32.704 562.288 32.888C562.432 33.072 562.544 33.284 562.624 33.524C562.704 33.764 562.744 34.024 562.744 34.304C562.744 34.68 562.672 35.016 562.528 35.312C562.392 35.616 562.192 35.876 561.928 36.092C561.672 36.308 561.36 36.472 560.992 36.584C560.624 36.704 560.212 36.764 559.756 36.764C559.148 36.764 558.612 36.656 558.148 36.44C557.684 36.232 557.312 35.928 557.032 35.528L557.836 34.616C558.028 34.912 558.276 35.144 558.58 35.312C558.884 35.48 559.268 35.564 559.732 35.564C560.26 35.564 560.664 35.452 560.944 35.228C561.232 35.004 561.376 34.668 561.376 34.22C561.376 33.756 561.216 33.392 560.896 33.128C560.576 32.864 560.104 32.732 559.48 32.732H559.156V31.7H559.516C560.052 31.7 560.464 31.576 560.752 31.328C561.04 31.072 561.184 30.752 561.184 30.368C561.184 29.984 561.056 29.704 560.8 29.528C560.544 29.344 560.212 29.252 559.804 29.252C559.396 29.252 559.036 29.34 558.724 29.516C558.412 29.692 558.164 29.944 557.98 30.272L557.152 29.372C557.264 29.18 557.416 29.008 557.608 28.856C557.8 28.696 558.016 28.56 558.256 28.448C558.504 28.328 558.768 28.24 559.048 28.184C559.336 28.12 559.632 28.088 559.936 28.088C560.328 28.088 560.684 28.14 561.004 28.244C561.332 28.348 561.612 28.492 561.844 28.676C562.084 28.86 562.268 29.084 562.396 29.348C562.524 29.612 562.588 29.904 562.588 30.224C562.588 30.464 562.552 30.692 562.48 30.908C562.408 31.124 562.304 31.32 562.168 31.496C562.04 31.672 561.884 31.82 561.7 31.94C561.516 32.052 561.308 32.128 561.076 32.168ZM563.966 35V33.464H565.058V35H563.966ZM569.737 36.524V34.616H566.053V33.44L570.157 28.148H571.057V33.416H572.113V34.616H571.057V36.524H569.737ZM567.397 33.416H569.881V30.164L567.397 33.416ZM576.991 32.168C577.239 32.216 577.467 32.304 577.675 32.432C577.883 32.552 578.059 32.704 578.203 32.888C578.347 33.072 578.459 33.284 578.539 33.524C578.619 33.764 578.659 34.024 578.659 34.304C578.659 34.68 578.587 35.016 578.443 35.312C578.307 35.616 578.107 35.876 577.843 36.092C577.587 36.308 577.275 36.472 576.907 36.584C576.539 36.704 576.127 36.764 575.671 36.764C575.063 36.764 574.527 36.656 574.062 36.44C573.599 36.232 573.227 35.928 572.947 35.528L573.751 34.616C573.943 34.912 574.191 35.144 574.495 35.312C574.799 35.48 575.183 35.564 575.646 35.564C576.175 35.564 576.579 35.452 576.859 35.228C577.147 35.004 577.291 34.668 577.291 34.22C577.291 33.756 577.131 33.392 576.811 33.128C576.491 32.864 576.019 32.732 575.395 32.732H575.071V31.7H575.431C575.967 31.7 576.379 31.576 576.667 31.328C576.955 31.072 577.099 30.752 577.099 30.368C577.099 29.984 576.971 29.704 576.715 29.528C576.459 29.344 576.127 29.252 575.719 29.252C575.311 29.252 574.951 29.34 574.639 29.516C574.327 29.692 574.079 29.944 573.895 30.272L573.067 29.372C573.179 29.18 573.331 29.008 573.523 28.856C573.715 28.696 573.931 28.56 574.171 28.448C574.419 28.328 574.683 28.24 574.963 28.184C575.251 28.12 575.547 28.088 575.851 28.088C576.243 28.088 576.599 28.14 576.919 28.244C577.247 28.348 577.527 28.492 577.759 28.676C577.999 28.86 578.183 29.084 578.311 29.348C578.439 29.612 578.503 29.904 578.503 30.224C578.503 30.464 578.467 30.692 578.395 30.908C578.323 31.124 578.219 31.32 578.083 31.496C577.955 31.672 577.799 31.82 577.615 31.94C577.431 32.052 577.223 32.128 576.991 32.168Z" fill="#363940"/>
<path fill-rule="evenodd" clip-rule="evenodd" d="M592 29L596 34H588L592 29Z" fill="#23B36B"/>
</g>
<path fill-rule="evenodd" clip-rule="evenodd" d="M25 292H669V293H25V292Z" fill="#B8D3E6"/>
<path d="M30.664 313V309.58H28.408L26.344 313H25.36L27.544 309.448C27.28 309.36 27.04 309.236 26.824 309.076C26.616 308.916 26.436 308.732 26.284 308.524C26.132 308.308 26.012 308.072 25.924 307.816C25.844 307.56 25.804 307.292 25.804 307.012C25.804 306.692 25.868 306.38 25.996 306.076C26.124 305.772 26.304 305.504 26.536 305.272C26.768 305.032 27.044 304.84 27.364 304.696C27.692 304.552 28.052 304.48 28.444 304.48H31.504V313H30.664ZM30.664 305.224H28.48C28.224 305.224 27.984 305.272 27.76 305.368C27.536 305.456 27.34 305.584 27.172 305.752C27.012 305.912 26.884 306.1 26.788 306.316C26.7 306.532 26.656 306.764 26.656 307.012C26.656 307.252 26.696 307.484 26.776 307.708C26.856 307.924 26.968 308.116 27.112 308.284C27.264 308.452 27.448 308.588 27.664 308.692C27.88 308.788 28.128 308.836 28.408 308.836H30.664V305.224ZM34.298 309.448H37.802V306.748H38.606V313H37.802V310.132H34.298V313H33.494V306.748H34.298V309.448ZM43.5155 306.748C43.7395 306.748 43.9435 306.788 44.1275 306.868C44.3195 306.948 44.4835 307.06 44.6195 307.204C44.7635 307.34 44.8715 307.5 44.9435 307.684C45.0235 307.868 45.0635 308.068 45.0635 308.284C45.0635 308.428 45.0435 308.572 45.0035 308.716C44.9715 308.86 44.9195 309 44.8475 309.136C44.7755 309.264 44.6835 309.384 44.5715 309.496C44.4595 309.6 44.3275 309.684 44.1755 309.748C44.5275 309.844 44.8035 310.028 45.0035 310.3C45.2035 310.572 45.3035 310.9 45.3035 311.284C45.3035 311.54 45.2555 311.772 45.1595 311.98C45.0715 312.188 44.9435 312.368 44.7755 312.52C44.6155 312.672 44.4235 312.792 44.1995 312.88C43.9755 312.96 43.7315 313 43.4675 313H40.4555V306.748H43.5155ZM43.1915 309.508C43.5195 309.508 43.7795 309.404 43.9715 309.196C44.1635 308.988 44.2595 308.724 44.2595 308.404C44.2595 308.124 44.1795 307.88 44.0195 307.672C43.8595 307.464 43.6115 307.36 43.2755 307.36H41.2475V309.508H43.1915ZM43.3835 312.388C43.5515 312.388 43.7035 312.356 43.8395 312.292C43.9835 312.228 44.1035 312.144 44.1995 312.04C44.2955 311.928 44.3715 311.804 44.4275 311.668C44.4835 311.532 44.5115 311.388 44.5115 311.236C44.5115 310.948 44.4115 310.692 44.2115 310.468C44.0195 310.244 43.7515 310.132 43.4075 310.132H41.2475V312.388H43.3835ZM53.7314 312.256V313H49.6634V312.256H51.3674V307.12C51.3034 307.216 51.1914 307.32 51.0314 307.432C50.8794 307.544 50.7074 307.648 50.5154 307.744C50.3314 307.84 50.1394 307.92 49.9394 307.984C49.7394 308.048 49.5634 308.08 49.4114 308.08V307.288C49.5954 307.288 49.7954 307.236 50.0114 307.132C50.2354 307.028 50.4434 306.908 50.6354 306.772C50.8354 306.636 51.0034 306.508 51.1394 306.388C51.2754 306.268 51.3514 306.188 51.3674 306.148H52.2074V312.256H53.7314ZM58.7853 306.76H54.1893V306.004H60.0813L55.7733 314.524H54.8373L58.7853 306.76Z" fill="#8FA4B3"/>
<path d="M118.628 313V306.004L115.52 311.416H115.028L111.92 306.004V313H111.08V304.48H111.944L115.268 310.312L118.616 304.48H119.468V313H118.628ZM122.972 313.12C122.676 313.12 122.4 313.072 122.144 312.976C121.896 312.872 121.676 312.732 121.484 312.556C121.3 312.38 121.156 312.176 121.052 311.944C120.948 311.704 120.896 311.448 120.896 311.176C120.896 310.904 120.96 310.652 121.088 310.42C121.216 310.188 121.396 309.988 121.628 309.82C121.86 309.652 122.136 309.524 122.456 309.436C122.776 309.34 123.128 309.292 123.512 309.292C123.832 309.292 124.156 309.32 124.484 309.376C124.812 309.432 125.104 309.512 125.36 309.616V309.052C125.36 308.5 125.204 308.064 124.892 307.744C124.58 307.416 124.148 307.252 123.596 307.252C123.276 307.252 122.948 307.316 122.612 307.444C122.276 307.572 121.936 307.756 121.592 307.996L121.304 307.456C122.112 306.912 122.896 306.64 123.656 306.64C124.44 306.64 125.056 306.86 125.504 307.3C125.952 307.74 126.176 308.348 126.176 309.124V311.944C126.176 312.168 126.276 312.28 126.476 312.28V313C126.34 313.024 126.236 313.036 126.164 313.036C125.956 313.036 125.792 312.984 125.672 312.88C125.56 312.776 125.5 312.632 125.492 312.448L125.468 311.956C125.18 312.332 124.816 312.62 124.376 312.82C123.944 313.02 123.476 313.12 122.972 313.12ZM123.164 312.496C123.588 312.496 123.976 312.416 124.328 312.256C124.688 312.096 124.96 311.884 125.144 311.62C125.216 311.548 125.268 311.472 125.3 311.392C125.34 311.304 125.36 311.224 125.36 311.152V310.132C125.088 310.028 124.804 309.948 124.508 309.892C124.22 309.836 123.924 309.808 123.62 309.808C123.044 309.808 122.576 309.928 122.216 310.168C121.856 310.408 121.676 310.724 121.676 311.116C121.676 311.308 121.712 311.488 121.784 311.656C121.864 311.824 121.968 311.972 122.096 312.1C122.232 312.22 122.392 312.316 122.576 312.388C122.76 312.46 122.956 312.496 123.164 312.496ZM132.319 304.408C132.303 304.784 132.147 305.072 131.851 305.272C131.563 305.464 131.163 305.56 130.651 305.56C130.131 305.56 129.727 305.464 129.439 305.272C129.151 305.072 128.995 304.784 128.971 304.408H129.487C129.503 304.68 129.607 304.872 129.799 304.984C129.991 305.088 130.275 305.14 130.651 305.14C131.027 305.14 131.307 305.088 131.491 304.984C131.683 304.88 131.791 304.688 131.815 304.408H132.319ZM128.767 311.848L132.499 306.748H133.159V313H132.355V307.996L128.695 313H127.963V306.748H128.767V311.848ZM142.001 312.256V313H137.933V312.256H139.637V307.12C139.573 307.216 139.461 307.32 139.301 307.432C139.149 307.544 138.977 307.648 138.785 307.744C138.601 307.84 138.409 307.92 138.209 307.984C138.009 308.048 137.833 308.08 137.681 308.08V307.288C137.865 307.288 138.065 307.236 138.281 307.132C138.505 307.028 138.713 306.908 138.905 306.772C139.105 306.636 139.273 306.508 139.409 306.388C139.545 306.268 139.621 306.188 139.637 306.148H140.477V312.256H142.001ZM147.055 306.76H142.459V306.004H148.351L144.043 314.524H143.107L147.055 306.76Z" fill="#8FA4B3"/>
<path d="M198.92 311.74L204.2 304.48H204.896V313H204.056V305.86L198.86 313H198.092V304.48H198.92V311.74ZM208.713 309.496C208.745 309.064 208.837 308.672 208.989 308.32C209.149 307.96 209.353 307.656 209.601 307.408C209.849 307.16 210.137 306.968 210.465 306.832C210.793 306.696 211.145 306.628 211.521 306.628C211.953 306.628 212.345 306.712 212.697 306.88C213.057 307.04 213.361 307.268 213.609 307.564C213.865 307.852 214.061 308.196 214.197 308.596C214.341 308.996 214.413 309.428 214.413 309.892C214.413 310.388 214.337 310.836 214.185 311.236C214.041 311.628 213.837 311.964 213.573 312.244C213.317 312.524 213.013 312.74 212.661 312.892C212.309 313.044 211.925 313.12 211.509 313.12C211.109 313.12 210.745 313.052 210.417 312.916C210.089 312.772 209.801 312.576 209.553 312.328C209.313 312.072 209.121 311.764 208.977 311.404C208.833 311.044 208.745 310.648 208.713 310.216H207.681V313H206.889V306.748H207.681V309.496H208.713ZM209.505 309.88C209.505 310.68 209.689 311.3 210.057 311.74C210.425 312.18 210.913 312.4 211.521 312.4C211.841 312.4 212.129 312.34 212.385 312.22C212.649 312.1 212.869 311.932 213.045 311.716C213.221 311.492 213.357 311.228 213.453 310.924C213.549 310.612 213.597 310.264 213.597 309.88C213.597 309.088 213.405 308.472 213.021 308.032C212.637 307.584 212.137 307.36 211.521 307.36C211.209 307.36 210.929 307.42 210.681 307.54C210.433 307.66 210.221 307.832 210.045 308.056C209.869 308.272 209.733 308.536 209.637 308.848C209.549 309.16 209.505 309.504 209.505 309.88ZM214.814 312.316C215.038 312.3 215.234 312.24 215.402 312.136C215.57 312.024 215.714 311.828 215.834 311.548C215.962 311.26 216.07 310.868 216.158 310.372C216.254 309.876 216.346 309.232 216.434 308.44L216.614 306.748H220.286V313H219.482V307.396H217.37L217.202 308.788C217.098 309.62 216.982 310.308 216.854 310.852C216.726 311.388 216.574 311.82 216.398 312.148C216.23 312.468 216.026 312.696 215.786 312.832C215.546 312.96 215.266 313.032 214.946 313.048L214.814 312.316ZM229.13 312.256V313H225.062V312.256H226.766V307.12C226.702 307.216 226.59 307.32 226.43 307.432C226.278 307.544 226.106 307.648 225.914 307.744C225.73 307.84 225.538 307.92 225.338 307.984C225.138 308.048 224.962 308.08 224.81 308.08V307.288C224.994 307.288 225.194 307.236 225.41 307.132C225.634 307.028 225.842 306.908 226.034 306.772C226.234 306.636 226.402 306.508 226.538 306.388C226.674 306.268 226.75 306.188 226.766 306.148H227.606V312.256H229.13ZM234.184 306.76H229.588V306.004H235.48L231.172 314.524H230.236L234.184 306.76Z" fill="#8FA4B3"/>
<path d="M289.512 313.06C288.92 313.06 288.376 312.94 287.88 312.7C287.392 312.452 286.972 312.128 286.62 311.728C286.268 311.32 285.996 310.856 285.804 310.336C285.612 309.816 285.516 309.284 285.516 308.74C285.516 308.172 285.616 307.628 285.816 307.108C286.024 306.588 286.308 306.128 286.668 305.728C287.028 305.328 287.452 305.012 287.94 304.78C288.428 304.54 288.956 304.42 289.524 304.42C290.116 304.42 290.656 304.548 291.144 304.804C291.64 305.052 292.06 305.38 292.404 305.788C292.756 306.196 293.028 306.66 293.22 307.18C293.412 307.692 293.508 308.216 293.508 308.752C293.508 309.32 293.404 309.864 293.196 310.384C292.996 310.904 292.716 311.364 292.356 311.764C292.004 312.156 291.584 312.472 291.096 312.712C290.608 312.944 290.08 313.06 289.512 313.06ZM286.356 308.74C286.356 309.204 286.432 309.652 286.584 310.084C286.736 310.508 286.952 310.888 287.232 311.224C287.512 311.552 287.844 311.816 288.228 312.016C288.612 312.208 289.04 312.304 289.512 312.304C289.992 312.304 290.428 312.2 290.82 311.992C291.212 311.784 291.544 311.512 291.816 311.176C292.088 310.84 292.296 310.46 292.44 310.036C292.592 309.612 292.668 309.18 292.668 308.74C292.668 308.276 292.588 307.832 292.428 307.408C292.276 306.976 292.06 306.596 291.78 306.268C291.5 305.94 291.168 305.68 290.784 305.488C290.4 305.288 289.976 305.188 289.512 305.188C289.032 305.188 288.596 305.292 288.204 305.5C287.812 305.7 287.48 305.968 287.208 306.304C286.936 306.64 286.724 307.02 286.572 307.444C286.428 307.868 286.356 308.3 286.356 308.74ZM298.62 306.748H299.532L297.168 309.772L299.736 313H298.824L296.616 310.144H295.728V313H294.924V306.748H295.728V309.508H296.544L298.62 306.748ZM303.064 313H302.272V307.456H300.076V306.748H305.26V307.456H303.064V313ZM313.438 312.256V313H309.37V312.256H311.074V307.12C311.01 307.216 310.898 307.32 310.738 307.432C310.586 307.544 310.414 307.648 310.222 307.744C310.038 307.84 309.846 307.92 309.646 307.984C309.446 308.048 309.27 308.08 309.118 308.08V307.288C309.302 307.288 309.502 307.236 309.718 307.132C309.942 307.028 310.15 306.908 310.342 306.772C310.542 306.636 310.71 306.508 310.846 306.388C310.982 306.268 311.058 306.188 311.074 306.148H311.914V312.256H313.438ZM318.492 306.76H313.896V306.004H319.788L315.48 314.524H314.544L318.492 306.76Z" fill="#8FA4B3"/>
<path d="M375.664 313V309.58H373.408L371.344 313H370.36L372.544 309.448C372.28 309.36 372.04 309.236 371.824 309.076C371.616 308.916 371.436 308.732 371.284 308.524C371.132 308.308 371.012 308.072 370.924 307.816C370.844 307.56 370.804 307.292 370.804 307.012C370.804 306.692 370.868 306.38 370.996 306.076C371.124 305.772 371.304 305.504 371.536 305.272C371.768 305.032 372.044 304.84 372.364 304.696C372.692 304.552 373.052 304.48 373.444 304.48H376.504V313H375.664ZM375.664 305.224H373.48C373.224 305.224 372.984 305.272 372.76 305.368C372.536 305.456 372.34 305.584 372.172 305.752C372.012 305.912 371.884 306.1 371.788 306.316C371.7 306.532 371.656 306.764 371.656 307.012C371.656 307.252 371.696 307.484 371.776 307.708C371.856 307.924 371.968 308.116 372.112 308.284C372.264 308.452 372.448 308.588 372.664 308.692C372.88 308.788 373.128 308.836 373.408 308.836H375.664V305.224ZM379.298 309.448H382.802V306.748H383.606V313H382.802V310.132H379.298V313H378.494V306.748H379.298V309.448ZM388.516 306.748C388.74 306.748 388.944 306.788 389.128 306.868C389.32 306.948 389.484 307.06 389.62 307.204C389.764 307.34 389.872 307.5 389.944 307.684C390.024 307.868 390.064 308.068 390.064 308.284C390.064 308.428 390.044 308.572 390.004 308.716C389.972 308.86 389.92 309 389.848 309.136C389.776 309.264 389.684 309.384 389.572 309.496C389.46 309.6 389.328 309.684 389.176 309.748C389.528 309.844 389.804 310.028 390.004 310.3C390.204 310.572 390.304 310.9 390.304 311.284C390.304 311.54 390.256 311.772 390.16 311.98C390.072 312.188 389.944 312.368 389.776 312.52C389.616 312.672 389.424 312.792 389.2 312.88C388.976 312.96 388.732 313 388.468 313H385.456V306.748H388.516ZM388.192 309.508C388.52 309.508 388.78 309.404 388.972 309.196C389.164 308.988 389.26 308.724 389.26 308.404C389.26 308.124 389.18 307.88 389.02 307.672C388.86 307.464 388.612 307.36 388.276 307.36H386.248V309.508H388.192ZM388.384 312.388C388.552 312.388 388.704 312.356 388.84 312.292C388.984 312.228 389.104 312.144 389.2 312.04C389.296 311.928 389.372 311.804 389.428 311.668C389.484 311.532 389.512 311.388 389.512 311.236C389.512 310.948 389.412 310.692 389.212 310.468C389.02 310.244 388.752 310.132 388.408 310.132H386.248V312.388H388.384ZM398.731 312.256V313H394.663V312.256H396.367V307.12C396.303 307.216 396.191 307.32 396.031 307.432C395.879 307.544 395.707 307.648 395.515 307.744C395.331 307.84 395.139 307.92 394.939 307.984C394.739 308.048 394.563 308.08 394.411 308.08V307.288C394.595 307.288 394.795 307.236 395.011 307.132C395.235 307.028 395.443 306.908 395.635 306.772C395.835 306.636 396.003 306.508 396.139 306.388C396.275 306.268 396.351 306.188 396.367 306.148H397.207V312.256H398.731ZM405.508 310.636C405.508 311.012 405.428 311.352 405.268 311.656C405.108 311.952 404.892 312.208 404.62 312.424C404.348 312.64 404.028 312.808 403.66 312.928C403.3 313.04 402.92 313.096 402.52 313.096C402.096 313.096 401.704 313.032 401.344 312.904C400.984 312.768 400.672 312.588 400.408 312.364C400.152 312.132 399.952 311.864 399.808 311.56C399.664 311.256 399.592 310.932 399.592 310.588C399.592 310.316 399.64 310.064 399.736 309.832C399.84 309.6 399.972 309.396 400.132 309.22C400.292 309.036 400.472 308.88 400.672 308.752C400.88 308.616 401.088 308.512 401.296 308.44C401.104 308.36 400.924 308.264 400.756 308.152C400.588 308.032 400.44 307.896 400.312 307.744C400.184 307.592 400.08 307.424 400 307.24C399.928 307.056 399.892 306.86 399.892 306.652C399.892 306.3 399.972 305.992 400.132 305.728C400.292 305.456 400.496 305.228 400.744 305.044C401 304.86 401.284 304.72 401.596 304.624C401.916 304.528 402.236 304.48 402.556 304.48C402.876 304.48 403.192 304.528 403.504 304.624C403.824 304.72 404.108 304.86 404.356 305.044C404.612 305.22 404.82 305.444 404.98 305.716C405.14 305.988 405.22 306.296 405.22 306.64C405.22 306.848 405.18 307.044 405.1 307.228C405.028 307.412 404.924 307.584 404.788 307.744C404.66 307.896 404.508 308.032 404.332 308.152C404.164 308.264 403.984 308.36 403.792 308.44C404.024 308.52 404.244 308.632 404.452 308.776C404.66 308.912 404.84 309.072 404.992 309.256C405.152 309.44 405.276 309.648 405.364 309.88C405.46 310.112 405.508 310.364 405.508 310.636ZM404.68 310.576C404.68 310.288 404.616 310.036 404.488 309.82C404.36 309.596 404.192 309.408 403.984 309.256C403.776 309.104 403.544 308.988 403.288 308.908C403.032 308.828 402.78 308.788 402.532 308.788C402.268 308.788 402.012 308.832 401.764 308.92C401.516 309 401.292 309.12 401.092 309.28C400.892 309.432 400.732 309.62 400.612 309.844C400.492 310.068 400.432 310.316 400.432 310.588C400.432 310.868 400.496 311.12 400.624 311.344C400.752 311.56 400.916 311.744 401.116 311.896C401.324 312.048 401.552 312.164 401.8 312.244C402.056 312.324 402.312 312.364 402.568 312.364C402.824 312.364 403.076 312.324 403.324 312.244C403.58 312.156 403.808 312.036 404.008 311.884C404.208 311.724 404.368 311.536 404.488 311.32C404.616 311.096 404.68 310.848 404.68 310.576ZM400.708 306.688C400.708 306.92 400.764 307.128 400.876 307.312C400.988 307.488 401.132 307.64 401.308 307.768C401.484 307.888 401.68 307.98 401.896 308.044C402.12 308.108 402.336 308.14 402.544 308.14C402.76 308.14 402.976 308.108 403.192 308.044C403.408 307.98 403.604 307.884 403.78 307.756C403.964 307.628 404.112 307.472 404.224 307.288C404.336 307.104 404.392 306.896 404.392 306.664C404.392 306.44 404.34 306.24 404.236 306.064C404.132 305.88 403.992 305.728 403.816 305.608C403.648 305.48 403.452 305.384 403.228 305.32C403.004 305.256 402.772 305.224 402.532 305.224C402.3 305.224 402.072 305.26 401.848 305.332C401.632 305.396 401.44 305.492 401.272 305.62C401.104 305.74 400.968 305.892 400.864 306.076C400.76 306.26 400.708 306.464 400.708 306.688Z" fill="#8FA4B3"/>
<path d="M464.628 313V306.004L461.52 311.416H461.028L457.92 306.004V313H457.08V304.48H457.944L461.268 310.312L464.616 304.48H465.468V313H464.628ZM468.972 313.12C468.676 313.12 468.4 313.072 468.144 312.976C467.896 312.872 467.676 312.732 467.484 312.556C467.3 312.38 467.156 312.176 467.052 311.944C466.948 311.704 466.896 311.448 466.896 311.176C466.896 310.904 466.96 310.652 467.088 310.42C467.216 310.188 467.396 309.988 467.628 309.82C467.86 309.652 468.136 309.524 468.456 309.436C468.776 309.34 469.128 309.292 469.512 309.292C469.832 309.292 470.156 309.32 470.484 309.376C470.812 309.432 471.104 309.512 471.36 309.616V309.052C471.36 308.5 471.204 308.064 470.892 307.744C470.58 307.416 470.148 307.252 469.596 307.252C469.276 307.252 468.948 307.316 468.612 307.444C468.276 307.572 467.936 307.756 467.592 307.996L467.304 307.456C468.112 306.912 468.896 306.64 469.656 306.64C470.44 306.64 471.056 306.86 471.504 307.3C471.952 307.74 472.176 308.348 472.176 309.124V311.944C472.176 312.168 472.276 312.28 472.476 312.28V313C472.34 313.024 472.236 313.036 472.164 313.036C471.956 313.036 471.792 312.984 471.672 312.88C471.56 312.776 471.5 312.632 471.492 312.448L471.468 311.956C471.18 312.332 470.816 312.62 470.376 312.82C469.944 313.02 469.476 313.12 468.972 313.12ZM469.164 312.496C469.588 312.496 469.976 312.416 470.328 312.256C470.688 312.096 470.96 311.884 471.144 311.62C471.216 311.548 471.268 311.472 471.3 311.392C471.34 311.304 471.36 311.224 471.36 311.152V310.132C471.088 310.028 470.804 309.948 470.508 309.892C470.22 309.836 469.924 309.808 469.62 309.808C469.044 309.808 468.576 309.928 468.216 310.168C467.856 310.408 467.676 310.724 467.676 311.116C467.676 311.308 467.712 311.488 467.784 311.656C467.864 311.824 467.968 311.972 468.096 312.1C468.232 312.22 468.392 312.316 468.576 312.388C468.76 312.46 468.956 312.496 469.164 312.496ZM478.319 304.408C478.303 304.784 478.147 305.072 477.851 305.272C477.563 305.464 477.163 305.56 476.651 305.56C476.131 305.56 475.727 305.464 475.439 305.272C475.151 305.072 474.995 304.784 474.971 304.408H475.487C475.503 304.68 475.607 304.872 475.799 304.984C475.991 305.088 476.275 305.14 476.651 305.14C477.027 305.14 477.307 305.088 477.491 304.984C477.683 304.88 477.791 304.688 477.815 304.408H478.319ZM474.767 311.848L478.499 306.748H479.159V313H478.355V307.996L474.695 313H473.963V306.748H474.767V311.848ZM488.001 312.256V313H483.933V312.256H485.637V307.12C485.573 307.216 485.461 307.32 485.301 307.432C485.149 307.544 484.977 307.648 484.785 307.744C484.601 307.84 484.409 307.92 484.209 307.984C484.009 308.048 483.833 308.08 483.681 308.08V307.288C483.865 307.288 484.065 307.236 484.281 307.132C484.505 307.028 484.713 306.908 484.905 306.772C485.105 306.636 485.273 306.508 485.409 306.388C485.545 306.268 485.621 306.188 485.637 306.148H486.477V312.256H488.001ZM494.778 310.636C494.778 311.012 494.698 311.352 494.538 311.656C494.378 311.952 494.162 312.208 493.89 312.424C493.618 312.64 493.298 312.808 492.93 312.928C492.57 313.04 492.19 313.096 491.79 313.096C491.366 313.096 490.974 313.032 490.614 312.904C490.254 312.768 489.942 312.588 489.678 312.364C489.422 312.132 489.222 311.864 489.078 311.56C488.934 311.256 488.862 310.932 488.862 310.588C488.862 310.316 488.91 310.064 489.006 309.832C489.11 309.6 489.242 309.396 489.402 309.22C489.562 309.036 489.742 308.88 489.942 308.752C490.15 308.616 490.358 308.512 490.566 308.44C490.374 308.36 490.194 308.264 490.026 308.152C489.858 308.032 489.71 307.896 489.582 307.744C489.454 307.592 489.35 307.424 489.27 307.24C489.198 307.056 489.162 306.86 489.162 306.652C489.162 306.3 489.242 305.992 489.402 305.728C489.562 305.456 489.766 305.228 490.014 305.044C490.27 304.86 490.554 304.72 490.866 304.624C491.186 304.528 491.506 304.48 491.826 304.48C492.146 304.48 492.462 304.528 492.774 304.624C493.094 304.72 493.378 304.86 493.626 305.044C493.882 305.22 494.09 305.444 494.25 305.716C494.41 305.988 494.49 306.296 494.49 306.64C494.49 306.848 494.45 307.044 494.37 307.228C494.298 307.412 494.194 307.584 494.058 307.744C493.93 307.896 493.778 308.032 493.602 308.152C493.434 308.264 493.254 308.36 493.062 308.44C493.294 308.52 493.514 308.632 493.722 308.776C493.93 308.912 494.11 309.072 494.262 309.256C494.422 309.44 494.546 309.648 494.634 309.88C494.73 310.112 494.778 310.364 494.778 310.636ZM493.95 310.576C493.95 310.288 493.886 310.036 493.758 309.82C493.63 309.596 493.462 309.408 493.254 309.256C493.046 309.104 492.814 308.988 492.558 308.908C492.302 308.828 492.05 308.788 491.802 308.788C491.538 308.788 491.282 308.832 491.034 308.92C490.786 309 490.562 309.12 490.362 309.28C490.162 309.432 490.002 309.62 489.882 309.844C489.762 310.068 489.702 310.316 489.702 310.588C489.702 310.868 489.766 311.12 489.894 311.344C490.022 311.56 490.186 311.744 490.386 311.896C490.594 312.048 490.822 312.164 491.07 312.244C491.326 312.324 491.582 312.364 491.838 312.364C492.094 312.364 492.346 312.324 492.594 312.244C492.85 312.156 493.078 312.036 493.278 311.884C493.478 311.724 493.638 311.536 493.758 311.32C493.886 311.096 493.95 310.848 493.95 310.576ZM489.978 306.688C489.978 306.92 490.034 307.128 490.146 307.312C490.258 307.488 490.402 307.64 490.578 307.768C490.754 307.888 490.95 307.98 491.166 308.044C491.39 308.108 491.606 308.14 491.814 308.14C492.03 308.14 492.246 308.108 492.462 308.044C492.678 307.98 492.874 307.884 493.05 307.756C493.234 307.628 493.382 307.472 493.494 307.288C493.606 307.104 493.662 306.896 493.662 306.664C493.662 306.44 493.61 306.24 493.506 306.064C493.402 305.88 493.262 305.728 493.086 305.608C492.918 305.48 492.722 305.384 492.498 305.32C492.274 305.256 492.042 305.224 491.802 305.224C491.57 305.224 491.342 305.26 491.118 305.332C490.902 305.396 490.71 305.492 490.542 305.62C490.374 305.74 490.238 305.892 490.134 306.076C490.03 306.26 489.978 306.464 489.978 306.688Z" fill="#8FA4B3"/>
<path d="M545.92 311.74L551.2 304.48H551.896V313H551.056V305.86L545.86 313H545.092V304.48H545.92V311.74ZM555.713 309.496C555.745 309.064 555.837 308.672 555.989 308.32C556.149 307.96 556.353 307.656 556.601 307.408C556.849 307.16 557.137 306.968 557.465 306.832C557.793 306.696 558.145 306.628 558.521 306.628C558.953 306.628 559.345 306.712 559.697 306.88C560.057 307.04 560.361 307.268 560.609 307.564C560.865 307.852 561.061 308.196 561.197 308.596C561.341 308.996 561.413 309.428 561.413 309.892C561.413 310.388 561.337 310.836 561.185 311.236C561.041 311.628 560.837 311.964 560.573 312.244C560.317 312.524 560.013 312.74 559.661 312.892C559.309 313.044 558.925 313.12 558.509 313.12C558.109 313.12 557.745 313.052 557.417 312.916C557.089 312.772 556.801 312.576 556.553 312.328C556.313 312.072 556.121 311.764 555.977 311.404C555.833 311.044 555.745 310.648 555.713 310.216H554.681V313H553.889V306.748H554.681V309.496H555.713ZM556.505 309.88C556.505 310.68 556.689 311.3 557.057 311.74C557.425 312.18 557.913 312.4 558.521 312.4C558.841 312.4 559.129 312.34 559.385 312.22C559.649 312.1 559.869 311.932 560.045 311.716C560.221 311.492 560.357 311.228 560.453 310.924C560.549 310.612 560.597 310.264 560.597 309.88C560.597 309.088 560.405 308.472 560.021 308.032C559.637 307.584 559.137 307.36 558.521 307.36C558.209 307.36 557.929 307.42 557.681 307.54C557.433 307.66 557.221 307.832 557.045 308.056C556.869 308.272 556.733 308.536 556.637 308.848C556.549 309.16 556.505 309.504 556.505 309.88ZM561.814 312.316C562.038 312.3 562.234 312.24 562.402 312.136C562.57 312.024 562.714 311.828 562.834 311.548C562.962 311.26 563.07 310.868 563.158 310.372C563.254 309.876 563.346 309.232 563.434 308.44L563.614 306.748H567.286V313H566.482V307.396H564.37L564.202 308.788C564.098 309.62 563.982 310.308 563.854 310.852C563.726 311.388 563.574 311.82 563.398 312.148C563.23 312.468 563.026 312.696 562.786 312.832C562.546 312.96 562.266 313.032 561.946 313.048L561.814 312.316ZM576.13 312.256V313H572.062V312.256H573.766V307.12C573.702 307.216 573.59 307.32 573.43 307.432C573.278 307.544 573.106 307.648 572.914 307.744C572.73 307.84 572.538 307.92 572.338 307.984C572.138 308.048 571.962 308.08 571.81 308.08V307.288C571.994 307.288 572.194 307.236 572.41 307.132C572.634 307.028 572.842 306.908 573.034 306.772C573.234 306.636 573.402 306.508 573.538 306.388C573.674 306.268 573.75 306.188 573.766 306.148H574.606V312.256H576.13ZM582.907 310.636C582.907 311.012 582.827 311.352 582.667 311.656C582.507 311.952 582.291 312.208 582.019 312.424C581.747 312.64 581.427 312.808 581.059 312.928C580.699 313.04 580.319 313.096 579.919 313.096C579.495 313.096 579.103 313.032 578.743 312.904C578.383 312.768 578.071 312.588 577.807 312.364C577.551 312.132 577.351 311.864 577.207 311.56C577.063 311.256 576.991 310.932 576.991 310.588C576.991 310.316 577.039 310.064 577.135 309.832C577.239 309.6 577.371 309.396 577.531 309.22C577.691 309.036 577.871 308.88 578.071 308.752C578.279 308.616 578.487 308.512 578.695 308.44C578.503 308.36 578.323 308.264 578.155 308.152C577.987 308.032 577.839 307.896 577.711 307.744C577.583 307.592 577.479 307.424 577.399 307.24C577.327 307.056 577.291 306.86 577.291 306.652C577.291 306.3 577.371 305.992 577.531 305.728C577.691 305.456 577.895 305.228 578.143 305.044C578.399 304.86 578.683 304.72 578.995 304.624C579.315 304.528 579.635 304.48 579.955 304.48C580.275 304.48 580.591 304.528 580.903 304.624C581.223 304.72 581.507 304.86 581.755 305.044C582.011 305.22 582.219 305.444 582.379 305.716C582.539 305.988 582.619 306.296 582.619 306.64C582.619 306.848 582.579 307.044 582.499 307.228C582.427 307.412 582.323 307.584 582.187 307.744C582.059 307.896 581.907 308.032 581.731 308.152C581.563 308.264 581.383 308.36 581.191 308.44C581.423 308.52 581.643 308.632 581.851 308.776C582.059 308.912 582.239 309.072 582.391 309.256C582.551 309.44 582.675 309.648 582.763 309.88C582.859 310.112 582.907 310.364 582.907 310.636ZM582.079 310.576C582.079 310.288 582.015 310.036 581.887 309.82C581.759 309.596 581.591 309.408 581.383 309.256C581.175 309.104 580.943 308.988 580.687 308.908C580.431 308.828 580.179 308.788 579.931 308.788C579.667 308.788 579.411 308.832 579.163 308.92C578.915 309 578.691 309.12 578.491 309.28C578.291 309.432 578.131 309.62 578.011 309.844C577.891 310.068 577.831 310.316 577.831 310.588C577.831 310.868 577.895 311.12 578.023 311.344C578.151 311.56 578.315 311.744 578.515 311.896C578.723 312.048 578.951 312.164 579.199 312.244C579.455 312.324 579.711 312.364 579.967 312.364C580.223 312.364 580.475 312.324 580.723 312.244C580.979 312.156 581.207 312.036 581.407 311.884C581.607 311.724 581.767 311.536 581.887 311.32C582.015 311.096 582.079 310.848 582.079 310.576ZM578.107 306.688C578.107 306.92 578.163 307.128 578.275 307.312C578.387 307.488 578.531 307.64 578.707 307.768C578.883 307.888 579.079 307.98 579.295 308.044C579.519 308.108 579.735 308.14 579.943 308.14C580.159 308.14 580.375 308.108 580.591 308.044C580.807 307.98 581.003 307.884 581.179 307.756C581.363 307.628 581.511 307.472 581.623 307.288C581.735 307.104 581.791 306.896 581.791 306.664C581.791 306.44 581.739 306.24 581.635 306.064C581.531 305.88 581.391 305.728 581.215 305.608C581.047 305.48 580.851 305.384 580.627 305.32C580.403 305.256 580.171 305.224 579.931 305.224C579.699 305.224 579.471 305.26 579.247 305.332C579.031 305.396 578.839 305.492 578.671 305.62C578.503 305.74 578.367 305.892 578.263 306.076C578.159 306.26 578.107 306.464 578.107 306.688Z" fill="#8FA4B3"/>
<path d="M637.512 313.06C636.92 313.06 636.376 312.94 635.88 312.7C635.392 312.452 634.972 312.128 634.62 311.728C634.268 311.32 633.996 310.856 633.804 310.336C633.612 309.816 633.516 309.284 633.516 308.74C633.516 308.172 633.616 307.628 633.816 307.108C634.024 306.588 634.308 306.128 634.668 305.728C635.028 305.328 635.452 305.012 635.94 304.78C636.428 304.54 636.956 304.42 637.524 304.42C638.116 304.42 638.656 304.548 639.144 304.804C639.64 305.052 640.06 305.38 640.404 305.788C640.756 306.196 641.028 306.66 641.22 307.18C641.412 307.692 641.508 308.216 641.508 308.752C641.508 309.32 641.404 309.864 641.196 310.384C640.996 310.904 640.716 311.364 640.356 311.764C640.004 312.156 639.584 312.472 639.096 312.712C638.608 312.944 638.08 313.06 637.512 313.06ZM634.356 308.74C634.356 309.204 634.432 309.652 634.584 310.084C634.736 310.508 634.952 310.888 635.232 311.224C635.512 311.552 635.844 311.816 636.228 312.016C636.612 312.208 637.04 312.304 637.512 312.304C637.992 312.304 638.428 312.2 638.82 311.992C639.212 311.784 639.544 311.512 639.816 311.176C640.088 310.84 640.296 310.46 640.44 310.036C640.592 309.612 640.668 309.18 640.668 308.74C640.668 308.276 640.588 307.832 640.428 307.408C640.276 306.976 640.06 306.596 639.78 306.268C639.5 305.94 639.168 305.68 638.784 305.488C638.4 305.288 637.976 305.188 637.512 305.188C637.032 305.188 636.596 305.292 636.204 305.5C635.812 305.7 635.48 305.968 635.208 306.304C634.936 306.64 634.724 307.02 634.572 307.444C634.428 307.868 634.356 308.3 634.356 308.74ZM646.62 306.748H647.532L645.168 309.772L647.736 313H646.824L644.616 310.144H643.728V313H642.924V306.748H643.728V309.508H644.544L646.62 306.748ZM651.064 313H650.272V307.456H648.076V306.748H653.26V307.456H651.064V313ZM661.438 312.256V313H657.37V312.256H659.074V307.12C659.01 307.216 658.898 307.32 658.738 307.432C658.586 307.544 658.414 307.648 658.222 307.744C658.038 307.84 657.846 307.92 657.646 307.984C657.446 308.048 657.27 308.08 657.118 308.08V307.288C657.302 307.288 657.502 307.236 657.718 307.132C657.942 307.028 658.15 306.908 658.342 306.772C658.542 306.636 658.71 306.508 658.846 306.388C658.982 306.268 659.058 306.188 659.074 306.148H659.914V312.256H661.438ZM668.215 310.636C668.215 311.012 668.135 311.352 667.975 311.656C667.815 311.952 667.599 312.208 667.327 312.424C667.055 312.64 666.735 312.808 666.367 312.928C666.007 313.04 665.627 313.096 665.227 313.096C664.803 313.096 664.411 313.032 664.051 312.904C663.691 312.768 663.379 312.588 663.115 312.364C662.859 312.132 662.659 311.864 662.515 311.56C662.371 311.256 662.299 310.932 662.299 310.588C662.299 310.316 662.347 310.064 662.443 309.832C662.547 309.6 662.679 309.396 662.839 309.22C662.999 309.036 663.179 308.88 663.379 308.752C663.587 308.616 663.795 308.512 664.003 308.44C663.811 308.36 663.631 308.264 663.463 308.152C663.295 308.032 663.147 307.896 663.019 307.744C662.891 307.592 662.787 307.424 662.707 307.24C662.635 307.056 662.599 306.86 662.599 306.652C662.599 306.3 662.679 305.992 662.839 305.728C662.999 305.456 663.203 305.228 663.451 305.044C663.707 304.86 663.991 304.72 664.303 304.624C664.623 304.528 664.943 304.48 665.263 304.48C665.583 304.48 665.899 304.528 666.211 304.624C666.531 304.72 666.815 304.86 667.063 305.044C667.319 305.22 667.527 305.444 667.687 305.716C667.847 305.988 667.927 306.296 667.927 306.64C667.927 306.848 667.887 307.044 667.807 307.228C667.735 307.412 667.631 307.584 667.495 307.744C667.367 307.896 667.215 308.032 667.039 308.152C666.871 308.264 666.691 308.36 666.499 308.44C666.731 308.52 666.951 308.632 667.159 308.776C667.367 308.912 667.547 309.072 667.699 309.256C667.859 309.44 667.983 309.648 668.071 309.88C668.167 310.112 668.215 310.364 668.215 310.636ZM667.387 310.576C667.387 310.288 667.323 310.036 667.195 309.82C667.067 309.596 666.899 309.408 666.691 309.256C666.483 309.104 666.251 308.988 665.995 308.908C665.739 308.828 665.487 308.788 665.239 308.788C664.975 308.788 664.719 308.832 664.471 308.92C664.223 309 663.999 309.12 663.799 309.28C663.599 309.432 663.439 309.62 663.319 309.844C663.199 310.068 663.139 310.316 663.139 310.588C663.139 310.868 663.203 311.12 663.331 311.344C663.459 311.56 663.623 311.744 663.823 311.896C664.031 312.048 664.259 312.164 664.507 312.244C664.763 312.324 665.019 312.364 665.275 312.364C665.531 312.364 665.783 312.324 666.031 312.244C666.287 312.156 666.515 312.036 666.715 311.884C666.915 311.724 667.075 311.536 667.195 311.32C667.323 311.096 667.387 310.848 667.387 310.576ZM663.415 306.688C663.415 306.92 663.471 307.128 663.583 307.312C663.695 307.488 663.839 307.64 664.015 307.768C664.191 307.888 664.387 307.98 664.603 308.044C664.827 308.108 665.043 308.14 665.251 308.14C665.467 308.14 665.683 308.108 665.899 308.044C666.115 307.98 666.311 307.884 666.487 307.756C666.671 307.628 666.819 307.472 666.931 307.288C667.043 307.104 667.099 306.896 667.099 306.664C667.099 306.44 667.047 306.24 666.943 306.064C666.839 305.88 666.699 305.728 666.523 305.608C666.355 305.48 666.159 305.384 665.935 305.32C665.711 305.256 665.479 305.224 665.239 305.224C665.007 305.224 664.779 305.26 664.555 305.332C664.339 305.396 664.147 305.492 663.979 305.62C663.811 305.74 663.675 305.892 663.571 306.076C663.467 306.26 663.415 306.464 663.415 306.688Z" fill="#8FA4B3"/>
<defs>
<filter id="filter0_d" x="0.418579" y="0.235229" width="693.225" height="272.357" filterUnits="userSpaceOnUse" color-interpolation-filters="sRGB">
<feFlood flood-opacity="0" result="BackgroundImageFix"/>
<feColorMatrix in="SourceAlpha" type="matrix" values="0 0 0 0 0 0 0 0 0 0 0 0 0 0 0 0 0 0 127 0"/>
<feOffset dy="5"/>
<feGaussianBlur stdDeviation="12"/>
<feColorMatrix type="matrix" values="0 0 0 0 0.0980392 0 0 0 0 0.596078 0 0 0 0 1 0 0 0 0.4 0"/>
<feBlend mode="normal" in2="BackgroundImageFix" result="effect1_dropShadow"/>
<feBlend mode="normal" in="SourceGraphic" in2="effect1_dropShadow" result="shape"/>
</filter>
<filter id="filter1_d" x="32" y="222" width="22" height="22" filterUnits="userSpaceOnUse" color-interpolation-filters="sRGB">
<feFlood flood-opacity="0" result="BackgroundImageFix"/>
<feColorMatrix in="SourceAlpha" type="matrix" values="0 0 0 0 0 0 0 0 0 0 0 0 0 0 0 0 0 0 127 0"/>
<feOffset dy="2"/>
<feGaussianBlur stdDeviation="2"/>
<feColorMatrix type="matrix" values="0 0 0 0 0.0941176 0 0 0 0 0.509804 0 0 0 0 0.658824 0 0 0 0.2 0"/>
<feBlend mode="normal" in2="BackgroundImageFix" result="effect1_dropShadow"/>
<feBlend mode="normal" in="SourceGraphic" in2="effect1_dropShadow" result="shape"/>
</filter>
<filter id="filter2_d" x="119" y="207" width="22" height="22" filterUnits="userSpaceOnUse" color-interpolation-filters="sRGB">
<feFlood flood-opacity="0" result="BackgroundImageFix"/>
<feColorMatrix in="SourceAlpha" type="matrix" values="0 0 0 0 0 0 0 0 0 0 0 0 0 0 0 0 0 0 127 0"/>
<feOffset dy="2"/>
<feGaussianBlur stdDeviation="2"/>
<feColorMatrix type="matrix" values="0 0 0 0 0.0941176 0 0 0 0 0.509804 0 0 0 0 0.658824 0 0 0 0.2 0"/>
<feBlend mode="normal" in2="BackgroundImageFix" result="effect1_dropShadow"/>
<feBlend mode="normal" in="SourceGraphic" in2="effect1_dropShadow" result="shape"/>
</filter>
<filter id="filter3_d" x="206" y="190" width="22" height="22" filterUnits="userSpaceOnUse" color-interpolation-filters="sRGB">
<feFlood flood-opacity="0" result="BackgroundImageFix"/>
<feColorMatrix in="SourceAlpha" type="matrix" values="0 0 0 0 0 0 0 0 0 0 0 0 0 0 0 0 0 0 127 0"/>
<feOffset dy="2"/>
<feGaussianBlur stdDeviation="2"/>
<feColorMatrix type="matrix" values="0 0 0 0 0.0941176 0 0 0 0 0.509804 0 0 0 0 0.658824 0 0 0 0.2 0"/>
<feBlend mode="normal" in2="BackgroundImageFix" result="effect1_dropShadow"/>
<feBlend mode="normal" in="SourceGraphic" in2="effect1_dropShadow" result="shape"/>
</filter>
<filter id="filter4_d" x="292" y="125" width="22" height="22" filterUnits="userSpaceOnUse" color-interpolation-filters="sRGB">
<feFlood flood-opacity="0" result="BackgroundImageFix"/>
<feColorMatrix in="SourceAlpha" type="matrix" values="0 0 0 0 0 0 0 0 0 0 0 0 0 0 0 0 0 0 127 0"/>
<feOffset dy="2"/>
<feGaussianBlur stdDeviation="2"/>
<feColorMatrix type="matrix" values="0 0 0 0 0.0941176 0 0 0 0 0.509804 0 0 0 0 0.658824 0 0 0 0.2 0"/>
<feBlend mode="normal" in2="BackgroundImageFix" result="effect1_dropShadow"/>
<feBlend mode="normal" in="SourceGraphic" in2="effect1_dropShadow" result="shape"/>
</filter>
<filter id="filter5_d" x="378" y="108" width="22" height="22" filterUnits="userSpaceOnUse" color-interpolation-filters="sRGB">
<feFlood flood-opacity="0" result="BackgroundImageFix"/>
<feColorMatrix in="SourceAlpha" type="matrix" values="0 0 0 0 0 0 0 0 0 0 0 0 0 0 0 0 0 0 127 0"/>
<feOffset dy="2"/>
<feGaussianBlur stdDeviation="2"/>
<feColorMatrix type="matrix" values="0 0 0 0 0.0941176 0 0 0 0 0.509804 0 0 0 0 0.658824 0 0 0 0.2 0"/>
<feBlend mode="normal" in2="BackgroundImageFix" result="effect1_dropShadow"/>
<feBlend mode="normal" in="SourceGraphic" in2="effect1_dropShadow" result="shape"/>
</filter>
<filter id="filter6_d" x="465" y="50" width="22" height="22" filterUnits="userSpaceOnUse" color-interpolation-filters="sRGB">
<feFlood flood-opacity="0" result="BackgroundImageFix"/>
<feColorMatrix in="SourceAlpha" type="matrix" values="0 0 0 0 0 0 0 0 0 0 0 0 0 0 0 0 0 0 127 0"/>
<feOffset dy="2"/>
<feGaussianBlur stdDeviation="2"/>
<feColorMatrix type="matrix" values="0 0 0 0 0.0941176 0 0 0 0 0.509804 0 0 0 0 0.658824 0 0 0 0.2 0"/>
<feBlend mode="normal" in2="BackgroundImageFix" result="effect1_dropShadow"/>
<feBlend mode="normal" in="SourceGraphic" in2="effect1_dropShadow" result="shape"/>
</filter>
<filter id="filter7_d" x="553" y="57" width="22" height="22" filterUnits="userSpaceOnUse" color-interpolation-filters="sRGB">
<feFlood flood-opacity="0" result="BackgroundImageFix"/>
<feColorMatrix in="SourceAlpha" type="matrix" values="0 0 0 0 0 0 0 0 0 0 0 0 0 0 0 0 0 0 127 0"/>
<feOffset dy="2"/>
<feGaussianBlur stdDeviation="2"/>
<feColorMatrix type="matrix" values="0 0 0 0 0.0941176 0 0 0 0 0.509804 0 0 0 0 0.658824 0 0 0 0.2 0"/>
<feBlend mode="normal" in2="BackgroundImageFix" result="effect1_dropShadow"/>
<feBlend mode="normal" in="SourceGraphic" in2="effect1_dropShadow" result="shape"/>
</filter>
<filter id="filter8_d" x="640" y="22" width="22" height="22" filterUnits="userSpaceOnUse" color-interpolation-filters="sRGB">
<feFlood flood-opacity="0" result="BackgroundImageFix"/>
<feColorMatrix in="SourceAlpha" type="matrix" values="0 0 0 0 0 0 0 0 0 0 0 0 0 0 0 0 0 0 127 0"/>
<feOffset dy="2"/>
<feGaussianBlur stdDeviation="2"/>
<feColorMatrix type="matrix" values="0 0 0 0 0.0941176 0 0 0 0 0.509804 0 0 0 0 0.658824 0 0 0 0.2 0"/>
<feBlend mode="normal" in2="BackgroundImageFix" result="effect1_dropShadow"/>
<feBlend mode="normal" in="SourceGraphic" in2="effect1_dropShadow" result="shape"/>
</filter>
<filter id="filter9_dd" x="499" y="8" width="127" height="76" filterUnits="userSpaceOnUse" color-interpolation-filters="sRGB">
<feFlood flood-opacity="0" result="BackgroundImageFix"/>
<feColorMatrix in="SourceAlpha" type="matrix" values="0 0 0 0 0 0 0 0 0 0 0 0 0 0 0 0 0 0 127 0"/>
<feOffset dy="12"/>
<feGaussianBlur stdDeviation="10"/>
<feColorMatrix type="matrix" values="0 0 0 0 0.639216 0 0 0 0 0.67451 0 0 0 0 0.74902 0 0 0 0.2 0"/>
<feBlend mode="normal" in2="BackgroundImageFix" result="effect1_dropShadow"/>
<feColorMatrix in="SourceAlpha" type="matrix" values="0 0 0 0 0 0 0 0 0 0 0 0 0 0 0 0 0 0 127 0"/>
<feOffset dy="2"/>
<feGaussianBlur stdDeviation="2"/>
<feColorMatrix type="matrix" values="0 0 0 0 0.639216 0 0 0 0 0.67451 0 0 0 0 0.74902 0 0 0 0.1 0"/>
<feBlend mode="normal" in2="effect1_dropShadow" result="effect2_dropShadow"/>
<feBlend mode="normal" in="SourceGraphic" in2="effect2_dropShadow" result="shape"/>
</filter>
<linearGradient id="paint0_linear" x1="618.046" y1="293" x2="618.046" y2="64.0417" gradientUnits="userSpaceOnUse">
<stop stop-color="#6ECCEB" stop-opacity="0.0873245"/>
<stop offset="1" stop-color="#017DE5" stop-opacity="0.36"/>
</linearGradient>
<linearGradient id="paint1_linear" x1="347" y1="354.169" x2="484.659" y2="-43.7692" gradientUnits="userSpaceOnUse">
<stop stop-color="#02B4F4"/>
<stop offset="1" stop-color="#017DE5"/>
</linearGradient>
<clipPath id="clip0">
<rect width="87" height="36" fill="white" transform="translate(519 16)"/>
</clipPath>
</defs>
</svg>
