<svg width="185" height="187" viewBox="0 0 185 187" fill="none" xmlns="http://www.w3.org/2000/svg">
<path opacity="0.3" fill-rule="evenodd" clip-rule="evenodd" d="M134.405 38.8923C136.516 39.2645 138.268 40.7347 139.001 42.749L160.744 102.487C161.477 104.501 161.08 106.754 159.702 108.396L118.839 157.095C117.461 158.737 115.312 159.519 113.201 159.147L50.595 148.108C48.484 147.735 46.7319 146.265 45.9987 144.251L24.2559 84.5129C23.5227 82.4986 23.9199 80.2462 25.2978 78.6041L66.161 29.9053C67.5388 28.2632 69.6881 27.4809 71.7991 27.8531L134.405 38.8923Z" fill="#FFF4D9"/>
<path opacity="0.7" fill-rule="evenodd" clip-rule="evenodd" d="M90 29.732C91.8564 28.6603 94.1436 28.6603 96 29.7321L147.158 59.268C149.014 60.3397 150.158 62.3205 150.158 64.4641V123.536C150.158 125.679 149.014 127.66 147.158 128.732L96 158.268C94.1436 159.34 91.8564 159.34 90 158.268L38.8423 128.732C36.9859 127.66 35.8423 125.679 35.8423 123.536V64.4641C35.8423 62.3205 36.9859 60.3397 38.8423 59.268L90 29.732Z" fill="#FFF4D9"/>
<path fill-rule="evenodd" clip-rule="evenodd" d="M102 85.9987H102.414L100.899 87.5137C101.29 87.1227 101.29 86.4907 100.899 86.0997C100.662 85.8626 100.418 85.6351 100.167 85.4173L101 84.5847V84.9987C101 84.7309 101.105 84.4876 101.277 84.308L101.293 84.2917C101.367 84.2181 101.449 84.1584 101.536 84.1125C101.439 84.1633 101.352 84.2295 101.277 84.308L101 84.5847V82.0221C101.006 82.2704 101.103 82.5169 101.293 82.7067C101.684 83.0977 102.316 83.0977 102.707 82.7067L103 82.4137V83.9987H102.022C101.915 83.9963 101.806 84.0113 101.702 84.0437C101.796 84.0145 101.896 83.9987 102 83.9987H102.022C102.271 84.0043 102.517 84.1019 102.707 84.2917C102.897 84.4815 102.994 84.7281 103 84.9763V84.9987C103 85.1624 102.961 85.3169 102.891 85.4533C102.845 85.5442 102.783 85.6296 102.707 85.7057L102.691 85.7221C102.511 85.8935 102.268 85.9987 102 85.9987ZM102.691 85.7221C102.772 85.6448 102.84 85.554 102.891 85.4533C102.967 85.3041 103.004 85.1399 103 84.9763V83.9987H104.586L106.312 82.2727L105.553 81.8937C105.36 81.7967 105.202 81.6397 105.106 81.4467L104.726 80.6877L103 82.4137V81.9987C103 81.4467 102.553 80.9987 102 80.9987C101.74 80.9987 101.503 81.0981 101.325 81.2609L104.293 78.2927C104.519 78.0657 104.837 77.9617 105.16 78.0127C105.477 78.0647 105.751 78.2647 105.894 78.5527L106.745 80.2547L108.447 81.1057C108.734 81.2497 108.935 81.5227 108.987 81.8397C109.039 82.1567 108.934 82.4797 108.707 82.7067L105.707 85.7067C105.52 85.8937 105.266 85.9987 105 85.9987H102.414L102.691 85.7221ZM101.01 81.8539C101.044 81.6204 101.159 81.413 101.325 81.2609L101.293 81.2927C101.135 81.451 101.041 81.6487 101.01 81.8539ZM101.01 81.8539C101.002 81.9096 100.999 81.9659 101 82.0221V81.9987C101 81.9495 101.004 81.9012 101.01 81.8539ZM98.7493 86.8354C99.0023 87.0502 99.2478 87.2764 99.485 87.5137C99.876 87.9047 100.508 87.9047 100.899 87.5137L98.071 90.3417C98.462 89.9507 98.462 89.3187 98.071 88.9277C97.8334 88.69 97.5859 88.4657 97.3295 88.2553L98.7493 86.8354ZM101.596 105.14C103.716 102.686 105 99.4894 105 95.9987C105 93.6227 104.38 91.2627 103.208 89.1747C102.938 88.6917 102.326 88.5217 101.847 88.7917C101.365 89.0617 101.193 89.6717 101.464 90.1527C102.469 91.9427 103 93.9647 103 95.9987C103 102.616 97.617 107.999 91 107.999C84.383 107.999 79 102.616 79 95.9987C79 89.3817 84.383 83.9987 91 83.9987C93.8694 83.9987 96.5858 84.9991 98.7493 86.8354L100.167 85.4173C97.6229 83.2054 94.4038 81.9987 91 81.9987C83.28 81.9987 77 88.2787 77 95.9987C77 99.5233 78.309 102.748 80.4663 105.211C80.4386 105.233 80.4118 105.257 80.386 105.282L77.303 108.282C76.907 108.667 76.898 109.3 77.283 109.696C77.479 109.897 77.74 109.999 78 109.999C78.251 109.999 78.503 109.905 78.697 109.716L81.78 106.716C81.8148 106.682 81.8466 106.646 81.8754 106.609C84.3276 108.721 87.5173 109.999 91 109.999C94.5321 109.999 97.7628 108.684 100.228 106.518C100.267 106.581 100.313 106.641 100.366 106.696L103.283 109.696C103.479 109.897 103.739 109.999 104 109.999C104.251 109.999 104.503 109.905 104.697 109.716C105.093 109.331 105.102 108.698 104.717 108.302L101.8 105.302C101.738 105.238 101.669 105.184 101.596 105.14ZM101.596 105.14C101.172 105.63 100.715 106.091 100.228 106.518C99.9909 106.129 100.045 105.613 100.386 105.282C100.718 104.957 101.216 104.913 101.596 105.14ZM81.8754 106.609C82.1745 106.221 82.1512 105.663 81.8 105.302C81.4392 104.932 80.8633 104.899 80.4663 105.211C80.9026 105.71 81.3736 106.177 81.8754 106.609ZM95.9065 89.6782C94.5092 88.589 92.8 87.9987 91 87.9987C86.589 87.9987 83 91.5877 83 95.9987C83 100.41 86.589 103.999 91 103.999C95.411 103.999 99 100.41 99 95.9987C99 94.9967 98.802 93.9997 98.412 93.0347C98.205 92.5227 98.452 91.9397 98.964 91.7327C99.476 91.5267 100.059 91.7727 100.266 92.2847C100.753 93.4887 101 94.7387 101 95.9987C101 101.513 96.514 105.999 91 105.999C85.486 105.999 81 101.513 81 95.9987C81 90.4847 85.486 85.9987 91 85.9987C93.3349 85.9987 95.5482 86.7934 97.3295 88.2553L95.9065 89.6782ZM94.4773 91.1074L95.9065 89.6782C96.1681 89.8821 96.4187 90.1035 96.657 90.3417C97.048 90.7327 97.68 90.7327 98.071 90.3417L95.2428 93.1699C95.633 92.7788 95.6327 92.1465 95.242 91.7557C95.0029 91.5166 94.7471 91.3001 94.4773 91.1074ZM93.0327 92.5521C92.424 92.1911 91.727 91.9987 91 91.9987C88.794 91.9987 87 93.7927 87 95.9987C87 98.2047 88.794 99.9987 91 99.9987C93.206 99.9987 95 98.2047 95 95.9987C95 95.4457 95.447 94.9987 96 94.9987C96.553 94.9987 97 95.4457 97 95.9987C97 99.3077 94.309 101.999 91 101.999C87.691 101.999 85 99.3077 85 95.9987C85 92.6897 87.691 89.9987 91 89.9987C92.2647 89.9987 93.4689 90.3871 94.4773 91.1074L93.0327 92.5521ZM93.0327 92.5521C93.319 92.7218 93.5858 92.9289 93.827 93.1707C94.2189 93.5606 94.8507 93.5607 95.2417 93.1711L91.707 96.7057C91.512 96.9007 91.256 96.9987 91 96.9987C90.744 96.9987 90.488 96.9007 90.293 96.7057C89.902 96.3147 89.902 95.6827 90.293 95.2917L93.0327 92.5521Z" fill="#FFB319"/>
</svg>
